# Blender v2.79 (sub 0) OBJ File: 'Human Legs.blend'
# www.blender.org
mtllib Human Legs.mtl
o Cube
v 0.056092 -0.170833 -0.064157
v 0.143908 -0.170833 -0.064157
v 0.143908 -0.170833 0.064157
v 0.056092 -0.170833 0.064157
v 0.200000 0.200000 -0.200000
v 0.200000 0.200000 0.200000
v 0.100000 -0.178125 -0.066896
v 0.054218 -0.178125 -0.000000
v 0.048595 0.000000 -0.075111
v 0.145782 -0.178125 -0.000000
v 0.151405 0.000000 -0.075111
v 0.100000 -0.178125 0.066896
v 0.151405 0.000000 0.075111
v 0.048595 0.000000 0.075111
v 0.100000 0.200000 -0.200000
v 0.200000 0.200000 0.000000
v 0.100000 0.200000 0.200000
v 0.048595 0.000000 -0.000000
v 0.100000 0.000000 0.075111
v 0.151405 0.000000 0.000000
v 0.100000 0.000000 -0.075111
v 0.100000 0.200000 0.000000
v 0.100000 -0.200000 -0.000000
v 0.125167 -0.177604 -0.066700
v 0.054352 -0.177604 0.036773
v 0.048595 0.100000 -0.075111
v 0.145648 -0.177604 0.036773
v 0.151405 0.100000 -0.075111
v 0.074833 -0.177604 0.066700
v 0.151405 0.100000 0.075111
v 0.048595 0.100000 0.075111
v 0.150000 0.200000 -0.200000
v 0.200000 0.200000 0.100000
v 0.074833 -0.177604 -0.066700
v 0.054352 -0.177604 -0.036773
v 0.053950 -0.097917 -0.067287
v 0.145648 -0.177604 -0.036773
v 0.146050 -0.097917 -0.067287
v 0.125167 -0.177604 0.066700
v 0.146050 -0.097917 0.067287
v 0.053950 -0.097917 0.067287
v 0.200000 0.200000 -0.100000
v 0.150000 0.200000 0.200000
v 0.048595 0.000000 0.037555
v 0.048595 0.000000 -0.037556
v 0.048595 0.100000 -0.000000
v 0.048997 -0.098438 -0.000000
v 0.074298 0.000000 0.075111
v 0.125702 0.000000 0.075111
v 0.100000 -0.098438 0.074524
v 0.100000 0.100000 0.075111
v 0.151405 0.000000 0.037556
v 0.151405 0.000000 -0.037555
v 0.151003 -0.098438 0.000000
v 0.151405 0.100000 0.000000
v 0.125702 0.000000 -0.075111
v 0.074298 0.000000 -0.075111
v 0.100000 -0.098438 -0.074524
v 0.100000 0.100000 -0.075111
v 0.150000 0.200000 0.000000
v 0.100000 0.200000 -0.100000
v 0.100000 0.200000 0.100000
v 0.100000 -0.198437 0.036969
v 0.100000 -0.198437 -0.036969
v 0.074699 -0.198437 -0.000000
v 0.125301 -0.198437 -0.000000
v 0.125301 -0.196875 -0.036969
v 0.074699 -0.196875 -0.036969
v 0.074699 -0.196875 0.036969
v 0.150000 0.200000 -0.100000
v 0.074298 0.100000 -0.075111
v 0.074699 -0.098438 -0.073937
v 0.125301 -0.098438 -0.073937
v 0.151405 0.100000 -0.037555
v 0.150601 -0.098438 -0.036969
v 0.150601 -0.098438 0.036969
v 0.125702 0.100000 0.075111
v 0.125301 -0.098438 0.073937
v 0.074699 -0.098438 0.073937
v 0.049399 -0.098438 -0.036969
v 0.048595 0.100000 -0.037556
v 0.048595 0.100000 0.037555
v 0.049399 -0.098438 0.036969
v 0.074298 0.100000 0.075111
v 0.151405 0.100000 0.037556
v 0.125702 0.100000 -0.075111
v 0.150000 0.200000 0.100000
v 0.125301 -0.196875 0.036969
v -0.056092 -0.170833 -0.064157
v -0.143908 -0.170833 -0.064157
v -0.143908 -0.170833 0.064157
v -0.056092 -0.170833 0.064157
v -0.000000 0.166194 -0.134834
v -0.200000 0.200000 -0.200000
v -0.200000 0.200000 0.200000
v 0.000000 0.166194 0.134834
v -0.100000 -0.178125 -0.066896
v -0.054218 -0.178125 -0.000000
v -0.048595 0.000000 -0.075111
v -0.145782 -0.178125 0.000000
v -0.151405 0.000000 -0.075111
v -0.100000 -0.178125 0.066896
v -0.151405 0.000000 0.075111
v -0.048595 0.000000 0.075111
v -0.100000 0.200000 -0.200000
v -0.000000 0.166194 -0.000000
v -0.200000 0.200000 0.000000
v -0.100000 0.200000 0.200000
v -0.048595 0.000000 -0.000000
v -0.100000 0.000000 0.075111
v -0.151405 0.000000 0.000000
v -0.100000 0.000000 -0.075111
v -0.100000 0.200000 0.000000
v -0.100000 -0.200000 -0.000000
v -0.125167 -0.177604 -0.066700
v -0.054352 -0.177604 0.036773
v -0.048595 0.100000 -0.075111
v -0.145648 -0.177604 0.036773
v -0.151405 0.100000 -0.075111
v -0.074833 -0.177604 0.066700
v -0.151405 0.100000 0.075111
v -0.048595 0.100000 0.075111
v -0.150000 0.200000 -0.200000
v 0.000000 0.166194 0.067417
v -0.200000 0.200000 0.100000
v 0.000000 0.200000 0.200000
v -0.074833 -0.177604 -0.066700
v -0.054352 -0.177604 -0.036773
v -0.053950 -0.097917 -0.067287
v -0.145648 -0.177604 -0.036773
v -0.146050 -0.097917 -0.067287
v -0.125167 -0.177604 0.066700
v -0.146050 -0.097917 0.067287
v -0.053950 -0.097917 0.067287
v -0.000000 0.200000 -0.200000
v -0.000000 0.166194 -0.067417
v -0.200000 0.200000 -0.100000
v -0.150000 0.200000 0.200000
v -0.048595 0.000000 0.037555
v -0.048595 0.000000 -0.037556
v -0.048595 0.100000 -0.000000
v -0.048997 -0.098438 -0.000000
v -0.074298 0.000000 0.075111
v -0.125702 0.000000 0.075111
v -0.100000 -0.098438 0.074524
v -0.100000 0.100000 0.075111
v -0.151405 0.000000 0.037556
v -0.151405 0.000000 -0.037555
v -0.151003 -0.098438 0.000000
v -0.151405 0.100000 0.000000
v -0.125702 0.000000 -0.075111
v -0.074298 0.000000 -0.075111
v -0.100000 -0.098438 -0.074524
v -0.100000 0.100000 -0.075111
v -0.150000 0.200000 0.000000
v -0.000000 0.200000 -0.000000
v -0.100000 0.200000 -0.100000
v -0.100000 0.200000 0.100000
v -0.100000 -0.198437 0.036969
v -0.100000 -0.198437 -0.036969
v -0.074699 -0.198437 -0.000000
v -0.125301 -0.198437 0.000000
v -0.125301 -0.196875 -0.036969
v -0.074699 -0.196875 -0.036969
v -0.074699 -0.196875 0.036969
v 0.000000 0.200000 0.100000
v -0.000000 0.200000 -0.100000
v -0.150000 0.200000 -0.100000
v -0.074298 0.100000 -0.075111
v -0.074699 -0.098438 -0.073937
v -0.125301 -0.098438 -0.073937
v -0.151405 0.100000 -0.037555
v -0.150601 -0.098438 -0.036969
v -0.150601 -0.098438 0.036969
v -0.125702 0.100000 0.075111
v -0.125301 -0.098438 0.073937
v -0.074699 -0.098438 0.073937
v -0.049399 -0.098438 -0.036969
v -0.048595 0.100000 -0.037556
v -0.048595 0.100000 0.037555
v -0.049399 -0.098438 0.036969
v -0.074298 0.100000 0.075111
v -0.151405 0.100000 0.037556
v -0.125702 0.100000 -0.075111
v -0.150000 0.200000 0.100000
v -0.125301 -0.196875 0.036969
vn 0.5337 -0.7627 0.3653
vn 0.0000 1.0000 0.0000
vn 0.0000 -0.7806 -0.6250
vn 0.8994 -0.4371 0.0000
vn -0.2875 -0.7991 0.5280
vn -0.9922 -0.0488 0.1144
vn -1.0000 0.0000 -0.0000
vn -0.9979 -0.0639 -0.0077
vn -0.1421 -0.0495 0.9886
vn 0.0115 -0.0090 0.9999
vn 0.0000 -0.7806 0.6250
vn 0.9972 -0.0341 0.0671
vn 1.0000 -0.0061 -0.0054
vn 0.1421 -0.0495 -0.9886
vn -0.0115 -0.0090 -0.9999
vn -0.0365 -0.8327 0.5526
vn -0.0616 -0.9972 -0.0421
vn 0.6960 -0.7178 -0.0215
vn 0.0616 -0.9972 -0.0421
vn 0.0365 -0.8327 -0.5526
vn 0.5337 -0.7627 -0.3653
vn -0.6960 -0.7178 -0.0215
vn -0.5337 -0.7627 -0.3653
vn -0.0365 -0.8327 -0.5526
vn -0.5337 -0.7627 0.3653
vn -0.6960 -0.7178 0.0215
vn -0.0616 -0.9972 0.0421
vn 0.0000 0.0000 -1.0000
vn -0.2875 -0.7991 -0.5280
vn -0.0164 -0.0932 -0.9955
vn -0.2384 -0.0696 -0.9687
vn -0.1421 -0.0495 -0.9886
vn 0.2384 -0.0696 -0.9687
vn 0.0164 -0.0932 -0.9955
vn 0.0115 -0.0090 -0.9999
vn 1.0000 -0.0000 0.0000
vn 0.9979 -0.0639 -0.0077
vn 0.9922 -0.0488 -0.1144
vn 0.9972 -0.0341 -0.0671
vn 0.9922 -0.0488 0.1144
vn 0.9979 -0.0639 0.0077
vn 1.0000 -0.0061 0.0054
vn 0.0000 0.0000 1.0000
vn 0.0164 -0.0932 0.9955
vn 0.2384 -0.0696 0.9687
vn 0.1421 -0.0495 0.9886
vn -0.2384 -0.0696 0.9687
vn -0.0164 -0.0932 0.9955
vn -0.0115 -0.0090 0.9999
vn -1.0000 -0.0061 -0.0054
vn -0.9972 -0.0341 -0.0671
vn -0.9922 -0.0488 -0.1144
vn -0.8061 -0.5918 -0.0000
vn -0.9972 -0.0341 0.0671
vn -1.0000 -0.0061 0.0054
vn -0.9979 -0.0639 0.0077
vn 0.0365 -0.8327 0.5526
vn 0.0616 -0.9972 0.0421
vn 0.6960 -0.7178 0.0215
vn -0.8994 -0.4371 0.0000
vn 0.2875 -0.7991 0.5280
vn 0.2875 -0.7991 -0.5280
vn 0.8061 -0.5918 -0.0000
usemtl Material
s off
f 88//1 27//1 3//1 39//1
f 87//2 43//2 6//2 33//2
f 86//3 32//3 5//3 28//3
f 85//4 33//4 6//4 30//4
f 84//5 126//5 96//5 31//5
f 83//6 25//6 4//6 41//6
f 82//7 44//7 14//7 31//7
f 81//7 45//7 18//7 46//7
f 80//8 35//8 8//8 47//8
f 79//9 48//9 14//9 41//9
f 78//10 49//10 19//10 50//10
f 77//11 43//11 17//11 51//11
f 76//12 52//12 13//12 40//12
f 75//13 53//13 20//13 54//13
f 74//4 42//4 16//4 55//4
f 73//14 56//14 11//14 38//14
f 72//15 57//15 21//15 58//15
f 71//3 135//3 15//3 59//3
f 70//2 60//2 16//2 42//2
f 167//2 156//2 22//2 61//2
f 166//2 126//2 17//2 62//2
f 69//16 63//16 12//16 29//16
f 68//17 64//17 23//17 65//17
f 67//18 37//18 10//18 66//18
f 64//19 67//19 66//19 23//19
f 7//20 24//20 67//20 64//20
f 24//21 2//21 37//21 67//21
f 35//22 68//22 65//22 8//22
f 1//23 34//23 68//23 35//23
f 34//24 7//24 64//24 68//24
f 25//25 69//25 29//25 4//25
f 8//26 65//26 69//26 25//26
f 65//27 23//27 63//27 69//27
f 156//2 166//2 62//2 22//2
f 135//2 167//2 61//2 15//2
f 32//2 70//2 42//2 5//2
f 15//2 61//2 70//2 32//2
f 61//2 22//2 60//2 70//2
f 57//28 71//28 59//28 21//28
f 9//28 26//28 71//28 57//28
f 26//29 93//29 135//29 71//29
f 34//30 72//30 58//30 7//30
f 1//31 36//31 72//31 34//31
f 36//32 9//32 57//32 72//32
f 24//33 73//33 38//33 2//33
f 7//34 58//34 73//34 24//34
f 58//35 21//35 56//35 73//35
f 53//36 74//36 55//36 20//36
f 11//36 28//36 74//36 53//36
f 28//4 5//4 42//4 74//4
f 37//37 75//37 54//37 10//37
f 2//38 38//38 75//38 37//38
f 38//39 11//39 53//39 75//39
f 27//40 76//40 40//40 3//40
f 10//41 54//41 76//41 27//41
f 54//42 20//42 52//42 76//42
f 49//43 77//43 51//43 19//43
f 13//43 30//43 77//43 49//43
f 30//11 6//11 43//11 77//11
f 39//44 78//44 50//44 12//44
f 3//45 40//45 78//45 39//45
f 40//46 13//46 49//46 78//46
f 29//47 79//47 41//47 4//47
f 12//48 50//48 79//48 29//48
f 50//49 19//49 48//49 79//49
f 45//50 80//50 47//50 18//50
f 9//51 36//51 80//51 45//51
f 36//52 1//52 35//52 80//52
f 136//53 81//53 46//53 106//53
f 93//53 26//53 81//53 136//53
f 26//7 9//7 45//7 81//7
f 124//53 82//53 31//53 96//53
f 106//53 46//53 82//53 124//53
f 46//7 18//7 44//7 82//7
f 44//54 83//54 41//54 14//54
f 18//55 47//55 83//55 44//55
f 47//56 8//56 25//56 83//56
f 48//43 84//43 31//43 14//43
f 19//43 51//43 84//43 48//43
f 51//11 17//11 126//11 84//11
f 52//36 85//36 30//36 13//36
f 20//36 55//36 85//36 52//36
f 55//4 16//4 33//4 85//4
f 56//28 86//28 28//28 11//28
f 21//28 59//28 86//28 56//28
f 59//3 15//3 32//3 86//3
f 60//2 87//2 33//2 16//2
f 22//2 62//2 87//2 60//2
f 62//2 17//2 43//2 87//2
f 63//57 88//57 39//57 12//57
f 23//58 66//58 88//58 63//58
f 66//59 10//59 27//59 88//59
f 186//25 132//25 91//25 118//25
f 185//2 125//2 95//2 138//2
f 184//3 119//3 94//3 123//3
f 183//60 121//60 95//60 125//60
f 182//61 122//61 96//61 126//61
f 181//40 134//40 92//40 116//40
f 180//36 122//36 104//36 139//36
f 179//36 141//36 109//36 140//36
f 178//37 142//37 98//37 128//37
f 177//46 134//46 104//46 143//46
f 176//49 145//49 110//49 144//49
f 175//11 146//11 108//11 138//11
f 174//54 133//54 103//54 147//54
f 173//50 149//50 111//50 148//50
f 172//60 150//60 107//60 137//60
f 171//32 131//32 101//32 151//32
f 170//35 153//35 112//35 152//35
f 169//3 154//3 105//3 135//3
f 168//2 137//2 107//2 155//2
f 167//2 157//2 113//2 156//2
f 166//2 158//2 108//2 126//2
f 165//57 120//57 102//57 159//57
f 164//19 161//19 114//19 160//19
f 163//22 162//22 100//22 130//22
f 160//17 114//17 162//17 163//17
f 97//24 160//24 163//24 115//24
f 115//23 163//23 130//23 90//23
f 128//18 98//18 161//18 164//18
f 89//21 128//21 164//21 127//21
f 127//20 164//20 160//20 97//20
f 116//1 92//1 120//1 165//1
f 98//59 116//59 165//59 161//59
f 161//58 165//58 159//58 114//58
f 156//2 113//2 158//2 166//2
f 106//36 156//36 166//36 124//36
f 124//36 166//36 126//36 96//36
f 135//2 105//2 157//2 167//2
f 93//36 135//36 167//36 136//36
f 136//36 167//36 156//36 106//36
f 123//2 94//2 137//2 168//2
f 105//2 123//2 168//2 157//2
f 157//2 168//2 155//2 113//2
f 152//28 112//28 154//28 169//28
f 99//28 152//28 169//28 117//28
f 117//62 169//62 135//62 93//62
f 127//34 97//34 153//34 170//34
f 89//33 127//33 170//33 129//33
f 129//14 170//14 152//14 99//14
f 115//31 90//31 131//31 171//31
f 97//30 115//30 171//30 153//30
f 153//15 171//15 151//15 112//15
f 148//7 111//7 150//7 172//7
f 101//7 148//7 172//7 119//7
f 119//60 172//60 137//60 94//60
f 130//8 100//8 149//8 173//8
f 90//52 130//52 173//52 131//52
f 131//51 173//51 148//51 101//51
f 118//6 91//6 133//6 174//6
f 100//56 118//56 174//56 149//56
f 149//55 174//55 147//55 111//55
f 144//43 110//43 146//43 175//43
f 103//43 144//43 175//43 121//43
f 121//11 175//11 138//11 95//11
f 132//48 102//48 145//48 176//48
f 91//47 132//47 176//47 133//47
f 133//9 176//9 144//9 103//9
f 120//45 92//45 134//45 177//45
f 102//44 120//44 177//44 145//44
f 145//10 177//10 143//10 110//10
f 140//13 109//13 142//13 178//13
f 99//39 140//39 178//39 129//39
f 129//38 178//38 128//38 89//38
f 136//63 106//63 141//63 179//63
f 93//63 136//63 179//63 117//63
f 117//36 179//36 140//36 99//36
f 124//63 96//63 122//63 180//63
f 106//63 124//63 180//63 141//63
f 141//36 180//36 139//36 109//36
f 139//12 104//12 134//12 181//12
f 109//42 139//42 181//42 142//42
f 142//41 181//41 116//41 98//41
f 143//43 104//43 122//43 182//43
f 110//43 143//43 182//43 146//43
f 146//11 182//11 126//11 108//11
f 147//7 103//7 121//7 183//7
f 111//7 147//7 183//7 150//7
f 150//60 183//60 125//60 107//60
f 151//28 101//28 119//28 184//28
f 112//28 151//28 184//28 154//28
f 154//3 184//3 123//3 105//3
f 155//2 107//2 125//2 185//2
f 113//2 155//2 185//2 158//2
f 158//2 185//2 138//2 108//2
f 159//16 102//16 132//16 186//16
f 114//27 159//27 186//27 162//27
f 162//26 186//26 118//26 100//26
