# Blender v2.80 (sub 75) OBJ File: 'Tutorial Final 3.blend'
# www.blender.org
mtllib tutorial vents.mtl
g Vents_Plane.002
v 0.833338 4.714784 0.190513
v 0.833338 4.714782 -0.142820
v 0.500005 4.714782 -0.142820
v 0.500005 4.714784 0.190513
v 0.833338 4.381449 -0.142820
v 0.500005 4.381449 -0.142820
v 0.833338 4.381451 0.190513
v 0.500005 4.381451 0.190513
v -0.499995 4.714784 0.190513
v -0.499995 4.381451 0.190513
v -0.499995 4.381449 -0.142820
v -0.499995 4.714782 -0.142820
v -0.833325 4.381449 -0.142820
v -0.833325 4.714782 -0.142820
v -0.833325 4.714784 0.190513
v -0.833325 4.381451 0.190513
v -1.166658 4.714784 0.190513
v -1.166658 4.381451 0.190513
v -1.166658 4.381449 -0.142820
v -1.166658 4.714782 -0.142820
v 0.833338 3.381449 -0.142820
v 0.833338 3.381450 0.190513
v 0.833338 4.048117 0.190513
v 0.833338 4.048115 -0.142820
v 1.162266 3.381450 0.190513
v 1.162266 4.048117 0.190513
v 1.162266 4.048114 -0.142820
v 1.162266 3.381447 -0.142820
v 1.162266 4.381447 -0.142820
v 1.162266 4.381451 0.190513
v 1.162266 4.714780 -0.142820
v 1.162266 4.714784 0.190513
v -1.166658 5.048115 -0.142820
v -0.833325 5.048115 -0.142820
v -1.166658 5.048117 0.190513
v -0.833325 5.048117 0.190513
v -1.166658 6.048117 0.190513
v -1.166658 6.048115 -0.142820
v -0.833325 6.048117 0.190513
v -0.833325 6.048115 -0.142820
v -0.833325 7.048117 0.190513
v -1.166658 7.048117 0.190513
v -0.833325 7.048115 -0.142820
v -1.166658 7.048115 -0.142820
vt 0.754740 0.545454
vt 0.754740 0.454546
vt 0.663831 0.454546
vt 0.663831 0.545454
vt 0.754740 0.486364
vt 0.754740 0.395455
vt 0.663831 0.395455
vt 0.663831 0.486364
vt 0.754740 0.545454
vt 0.663831 0.545454
vt 0.663831 0.454546
vt 0.754740 0.454546
vt 0.754740 0.395455
vt 0.754740 0.486364
vt 0.663831 0.486364
vt 0.663831 0.395455
vt 0.391104 0.486364
vt 0.391104 0.395455
vt 0.391104 0.545454
vt 0.391104 0.454546
vt 0.391104 0.395455
vt 0.391104 0.486364
vt 0.391104 0.454546
vt 0.391104 0.545454
vt 0.300196 0.395455
vt 0.300196 0.486364
vt 0.300196 0.454546
vt 0.300196 0.545454
vt 0.300196 0.486364
vt 0.300196 0.395455
vt 0.300196 0.545454
vt 0.300196 0.454546
vt 0.209287 0.486364
vt 0.209287 0.395455
vt 0.209287 0.545454
vt 0.209287 0.454546
vt 0.209287 0.395455
vt 0.209287 0.486364
vt 0.122728 0.454546
vt 0.122728 0.545454
vt 0.304546 0.545454
vt 0.304545 0.454546
vt 0.754740 0.304546
vt 0.754740 0.122728
vt 0.844447 0.122728
vt 0.844447 0.304546
vt 0.304545 0.454546
vt 0.304546 0.545454
vt 0.122728 0.545454
vt 0.122727 0.454546
vt 0.395454 0.454546
vt 0.395455 0.545454
vt 0.844447 0.395455
vt 0.844447 0.395454
vt 0.844447 0.304545
vt 0.754740 0.304545
vt 0.844447 0.486363
vt 0.844447 0.122727
vt 0.754740 0.122728
vt 0.486364 0.545454
vt 0.486363 0.454546
vt 0.844447 0.486364
vt 0.844447 0.545454
vt 0.844447 0.454546
vt 0.395455 0.545454
vt 0.395455 0.454546
vt 0.395455 0.454546
vt 0.395455 0.545454
vt 0.486364 0.545454
vt 0.486364 0.454546
vt 0.209287 0.577272
vt 0.300196 0.577272
vt 0.577273 0.545454
vt 0.577272 0.454546
vt 0.486364 0.545454
vt 0.486364 0.454546
vt 0.577272 0.454546
vt 0.577273 0.545454
vt 0.300196 0.577273
vt 0.209287 0.577273
vt 0.850000 0.545454
vt 0.849999 0.454546
vt 0.300196 0.850000
vt 0.209287 0.850000
vt 0.849999 0.454546
vt 0.850000 0.545454
vt 0.209287 0.849999
vt 0.300196 0.849999
vt 0.300196 1.122727
vt 0.209287 1.122727
vt 1.122726 0.454546
vt 1.122727 0.545454
vt 0.209287 1.122726
vt 0.300196 1.122726
vt 1.122727 0.545454
vt 1.122726 0.454546
vn 0.0000 1.0000 -0.0000
vn 0.0000 0.0000 -1.0000
vn -0.3015 -0.3015 -0.9045
vn 0.0000 -0.7071 -0.7071
vn -0.5773 -0.5773 0.5774
vn 0.0000 -0.7071 0.7071
vn 0.0000 -0.0000 1.0000
vn -0.7071 -0.0000 0.7071
vn -0.5774 -0.5773 0.5774
vn -0.5774 -0.5774 -0.5773
vn -0.7071 0.0000 -0.7071
vn -1.0000 0.0000 0.0000
vn 1.0000 0.0000 0.0000
usemtl Material.005
s 1
f 1/1/1 2/2/1 3/3/1 4/4/1
f 2/5/2 5/6/3 6/7/4 3/8/2
f 7/9/5 8/10/6 6/11/4 5/12/3
f 7/13/5 1/14/7 4/15/7 8/16/6
f 8/16/6 4/15/7 9/17/7 10/18/6
f 8/10/6 10/19/6 11/20/4 6/11/4
f 3/8/2 6/7/4 11/21/4 12/22/2
f 4/4/1 3/3/1 12/23/1 9/24/1
f 12/22/2 11/21/4 13/25/4 14/26/2
f 9/24/1 12/23/1 14/27/1 15/28/1
f 10/18/6 9/17/7 15/29/7 16/30/6
f 10/19/6 16/31/6 13/32/4 11/20/4
f 16/30/6 15/29/7 17/33/8 18/34/9
f 16/31/6 18/35/9 19/36/10 13/32/4
f 14/26/2 13/25/4 19/37/10 20/38/11
f 21/39/12 22/40/12 23/41/12 24/42/12
f 23/43/7 22/44/7 25/45/7 26/46/7
f 27/47/13 26/48/13 25/49/13 28/50/13
f 29/51/13 30/52/13 26/48/13 27/47/13
f 7/13/7 23/43/7 26/46/7 30/53/7
f 5/6/3 29/54/2 27/55/2 24/56/2
f 2/5/2 31/57/2 29/54/2 5/6/3
f 24/56/2 27/55/2 28/58/2 21/59/2
f 32/60/13 30/52/13 29/51/13 31/61/13
f 1/14/7 7/13/7 30/53/7 32/62/7
f 2/2/1 1/1/1 32/63/1 31/64/1
f 24/42/12 23/41/12 7/65/5 5/66/3
f 19/67/10 18/68/9 17/69/8 20/70/11
f 14/26/2 20/38/11 33/71/11 34/72/2
f 17/69/8 35/73/8 33/74/11 20/70/11
f 15/75/13 14/76/13 34/77/13 36/78/13
f 17/33/8 15/29/7 36/79/7 35/80/8
f 35/73/8 37/81/8 38/82/11 33/74/11
f 35/80/8 36/79/7 39/83/7 37/84/8
f 36/78/13 34/77/13 40/85/13 39/86/13
f 34/72/2 33/71/11 38/87/11 40/88/2
f 37/84/8 39/83/7 41/89/7 42/90/8
f 39/86/13 40/85/13 43/91/13 41/92/13
f 40/88/2 38/87/11 44/93/11 43/94/2
f 37/81/8 42/95/8 44/96/11 38/82/11
