# Blender v2.80 (sub 75) OBJ File: 'JSch_Level_1_Build.blend'
# www.blender.org
mtllib Key.mtl
o Key_Cube.024
v -0.024881 -0.228331 0.068535
v -0.024881 -0.174278 0.068535
v -0.024881 -0.228331 -0.009939
v -0.024881 -0.174278 -0.009939
v 0.022303 -0.228331 0.068535
v 0.022303 -0.174278 0.068535
v 0.022303 -0.228331 -0.009939
v 0.022303 -0.174278 -0.009939
v -0.024881 -0.004478 0.038008
v -0.024881 -0.004478 -0.040466
v 0.022303 -0.004478 0.038008
v 0.022303 -0.004478 -0.040466
v 0.022303 -0.119328 -0.009939
v 0.022303 -0.119328 0.068535
v -0.024881 -0.119328 0.068535
v -0.024881 -0.119328 -0.009939
v -0.024881 -0.174278 -0.124416
v 0.022303 -0.174278 -0.124416
v 0.022303 -0.130013 -0.084731
v -0.024881 -0.130013 -0.084731
v -0.024881 -0.197489 0.068535
v -0.024881 -0.197489 -0.009939
v 0.022303 -0.197489 -0.009939
v 0.022303 -0.197489 0.068535
v -0.024881 -0.220699 -0.060309
v 0.022303 -0.220699 -0.060309
v -0.024881 -0.197489 -0.089310
v 0.022303 -0.197489 -0.089310
v -0.020394 0.081731 0.055596
v -0.020394 0.081731 -0.022878
v 0.026790 0.081731 0.055596
v 0.026790 0.081731 -0.022878
v -0.020394 0.285245 0.056869
v -0.020852 0.293003 -0.049314
v 0.026790 0.285245 0.056869
v 0.026332 0.293003 -0.049314
v 0.022528 0.176363 -0.099707
v 0.023920 0.182208 0.128714
v -0.023264 0.182208 0.128714
v -0.024656 0.176363 -0.099707
v 0.022783 0.177436 -0.057760
v 0.023595 0.180846 0.075481
v 0.025552 0.243558 0.024424
v 0.025295 0.242331 -0.016674
v 0.025565 0.114742 0.039145
v 0.025496 0.110448 -0.008700
v -0.023620 0.180716 0.070390
v -0.024360 0.177607 -0.051096
v -0.021522 0.120876 0.034852
v -0.021551 0.114742 -0.003180
v -0.022029 0.239264 0.021971
v -0.022266 0.237424 -0.013607
vt 0.500000 0.000000
vt 0.625000 0.000000
vt 0.625000 0.250000
vt 0.500000 0.250000
vt 0.625000 0.500000
vt 0.500000 0.500000
vt 0.625000 0.750000
vt 0.500000 0.750000
vt 0.625000 1.000000
vt 0.500000 1.000000
vt 0.125000 0.500000
vt 0.375000 0.500000
vt 0.375000 0.750000
vt 0.125000 0.750000
vt 0.625000 0.750000
vt 0.625000 0.500000
vt 0.625000 0.500000
vt 0.625000 0.750000
vt 0.625000 0.250000
vt 0.625000 0.000000
vt 0.625000 0.000000
vt 0.625000 0.250000
vt 0.625000 0.250000
vt 0.625000 0.000000
vt 0.625000 1.000000
vt 0.625000 1.000000
vt 0.625000 0.250000
vt 0.625000 0.250000
vt 0.625000 0.500000
vt 0.625000 0.500000
vt 0.375000 1.000000
vt 0.375000 0.500000
vt 0.500000 0.500000
vt 0.375000 0.000000
vt 0.375000 0.250000
vt 0.375000 0.250000
vt 0.500000 0.250000
vt 0.125000 0.500000
vt 0.625000 0.750000
vt 0.625000 0.691739
vt 0.625000 0.640223
vt 0.625000 0.558516
vt 0.625000 0.545910
vt 0.625000 0.500000
vt 0.625000 0.500000
vt 0.625000 0.750000
vt 0.625000 0.750000
vt 0.625000 1.000000
vt 0.625000 0.500000
vt 0.875000 0.500000
vt 0.875000 0.750000
vt 0.625000 0.250000
vt 0.625000 0.196796
vt 0.625000 0.182269
vt 0.625000 0.115198
vt 0.625000 0.063834
vt 0.625000 0.000000
vt 0.625000 0.000000
vt 0.625000 0.250000
vt 0.625000 1.000000
vt 0.625000 1.000000
vt 0.625000 0.085571
vt 0.625000 0.167088
vt 0.625000 0.567902
vt 0.625000 0.676719
vn -1.0000 0.0000 0.0000
vn 0.0000 0.0000 -1.0000
vn 1.0000 0.0000 0.0000
vn 0.0000 0.0000 1.0000
vn 0.0000 -1.0000 0.0000
vn -0.9986 0.0520 0.0000
vn 0.0000 0.2569 0.9664
vn 0.0000 -0.2569 -0.9664
vn 0.0000 0.6675 -0.7446
vn 0.0000 0.9899 -0.1414
vn 0.0000 -0.7807 -0.6249
vn 0.0000 -0.9887 -0.1498
vn 0.0000 1.0000 0.0000
vn 0.9996 -0.0290 -0.0059
vn 0.0000 -0.1999 0.9798
vn 0.0000 0.1999 -0.9798
vn 0.9986 -0.0520 0.0000
vn 0.0000 0.9973 0.0729
vn -0.9995 0.0307 0.0059
vn 0.0000 0.5720 0.8203
vn 0.0000 0.3966 -0.9180
vn 0.0000 -0.6303 -0.7764
vn 0.0000 -0.5884 0.8086
vn -0.9994 -0.0351 0.0043
vn 0.9993 0.0377 -0.0045
vn 0.0907 -0.6332 -0.7686
vn 0.0964 -0.9946 0.0392
vn 0.1128 -0.5326 0.8388
vn 0.1307 0.5968 0.7917
vn 0.1078 0.9869 -0.1200
vn 0.1172 0.4951 -0.8609
usemtl None
s off
f 21/1/1 2/2/1 4/3/1 22/4/1
f 22/4/2 4/3/2 8/5/2 23/6/2
f 23/6/3 8/5/3 6/7/3 24/8/3
f 24/8/4 6/7/4 2/9/4 21/10/4
f 3/11/5 7/12/5 5/13/5 1/14/5
f 14/15/3 13/16/3 12/17/3 11/18/3
f 10/19/6 9/20/6 29/21/6 30/22/6
f 16/23/1 15/24/1 9/20/1 10/19/1
f 15/25/7 14/15/7 11/18/7 9/26/7
f 13/16/8 16/23/8 10/19/8 12/17/8
f 4/3/1 16/23/1 20/27/1 17/28/1
f 2/9/4 6/7/4 14/15/4 15/25/4
f 4/3/1 2/2/1 15/24/1 16/23/1
f 6/7/3 8/5/3 13/16/3 14/15/3
f 18/29/9 17/28/9 20/27/9 19/30/9
f 16/23/10 13/16/10 19/30/10 20/27/10
f 13/16/3 8/5/3 18/29/3 19/30/3
f 8/5/5 4/3/5 17/28/5 18/29/5
f 5/13/4 24/8/4 21/10/4 1/31/4
f 7/12/3 23/6/3 24/8/3 5/13/3
f 23/6/3 7/12/3 26/32/3 28/33/3
f 1/34/1 21/1/1 22/4/1 3/35/1
f 25/36/11 27/37/11 28/33/11 26/32/11
f 7/12/12 3/11/12 25/38/12 26/32/12
f 22/4/13 23/6/13 28/33/13 27/37/13
f 3/35/1 22/4/1 27/37/1 25/36/1
f 38/39/14 42/40/14 43/41/14 44/42/14 41/43/14 37/44/14 36/45/14 35/46/14
f 9/26/15 11/18/15 31/47/15 29/48/15
f 12/17/16 10/19/16 30/22/16 32/49/16
f 11/18/17 12/17/17 32/49/17 31/47/17
f 36/45/18 34/50/18 33/51/18 35/46/18
f 40/52/19 48/53/19 52/54/19 51/55/19 47/56/19 39/57/19 33/58/19 34/59/19
f 39/60/20 38/39/20 35/46/20 33/61/20
f 37/44/21 40/52/21 34/59/21 36/45/21
f 32/49/22 30/22/22 40/52/22 37/44/22
f 29/48/23 31/47/23 38/39/23 39/60/23
f 30/22/24 29/21/24 39/57/24 47/56/24 49/62/24 50/63/24 48/53/24 40/52/24
f 31/47/25 32/49/25 37/44/25 41/43/25 46/64/25 45/65/25 42/40/25 38/39/25
f 42/40/26 47/56/26 51/55/26 43/41/26
f 43/41/27 51/55/27 52/54/27 44/42/27
f 44/42/28 52/54/28 48/53/28 41/43/28
f 41/43/29 48/53/29 50/63/29 46/64/29
f 46/64/30 50/63/30 49/62/30 45/65/30
f 45/65/31 49/62/31 47/56/31 42/40/31
