# Blender v2.80 (sub 75) OBJ File: 'JSch_Level_1_Build.blend'
# www.blender.org
mtllib JSch_Level_1 Platforms.mtl
g Platform_Cube
v -2.220721 0.000111 0.220721
v -2.163200 1.317976 0.163200
v -2.220721 0.000111 -0.220721
v -2.163200 1.317976 -0.163200
v -1.779279 0.000111 0.220721
v -1.836800 1.317976 0.163200
v -1.779279 0.000111 -0.220721
v -1.836800 1.317976 -0.163200
v -1.500000 1.720833 0.500000
v -1.500000 1.720833 -0.500000
v -2.500000 1.720833 0.500000
v -2.500000 1.720833 -0.500000
v -1.540637 1.508374 0.459362
v -1.540637 1.508374 -0.459362
v -2.459363 1.508374 -0.459362
v -2.459363 1.508374 0.459362
vt 0.371727 0.371727
vt 0.371727 0.628273
vt 0.628273 0.628273
vt 0.628273 0.371727
vt 0.405156 0.582334
vt 0.594844 0.582334
vt 0.628273 -0.183545
vt 0.371727 -0.183545
vt 0.405156 0.582334
vt 0.371727 -0.183545
vt 0.766959 0.692984
vt 0.790576 0.816455
vt 0.209424 0.816455
vt 0.233041 0.692984
vt 0.405156 0.582334
vt 0.594844 0.582334
vt 0.628273 -0.183545
vt 0.371727 -0.183545
vt 0.594844 0.582334
vt 0.628273 -0.183545
vt 0.790576 0.209424
vt 0.790576 0.790576
vt 0.209424 0.790576
vt 0.209424 0.209424
vt 0.233041 0.692984
vt 0.209424 0.816455
vt 0.790576 0.816455
vt 0.766959 0.692984
vt 0.766959 0.692984
vt 0.790576 0.816455
vt 0.233041 0.692984
vt 0.209424 0.816455
vt 0.405156 0.594844
vt 0.233041 0.766959
vt 0.766959 0.766959
vt 0.594844 0.594844
vt 0.594844 0.405156
vt 0.766959 0.233041
vt 0.233041 0.233041
vt 0.405156 0.405156
vn 0.0000 -1.0000 0.0000
vn 0.0000 0.0436 -0.9990
vn 0.9990 0.0436 0.0000
vn 0.9822 -0.1879 0.0000
vn -0.9990 0.0436 0.0000
vn 0.0000 0.0436 0.9990
vn 0.0000 1.0000 0.0000
vn -0.9822 -0.1879 0.0000
vn 0.0000 -0.1879 0.9822
vn 0.0000 -0.1879 -0.9822
vn 0.0000 -0.8412 -0.5408
vn 0.0000 -0.8412 0.5408
vn -0.5408 -0.8412 0.0000
vn 0.5408 -0.8412 0.0000
usemtl Material
s off
f 1/1/1 3/2/1 7/3/1 5/4/1
f 4/5/2 8/6/2 7/7/2 3/8/2
f 8/6/3 6/9/3 5/10/3 7/7/3
f 14/11/4 10/12/4 9/13/4 13/14/4
f 2/15/5 4/16/5 3/17/5 1/18/5
f 6/19/6 2/15/6 1/18/6 5/20/6
f 9/21/7 10/22/7 12/23/7 11/24/7
f 16/25/8 11/26/8 12/27/8 15/28/8
f 13/29/9 9/30/9 11/26/9 16/25/9
f 15/31/10 12/32/10 10/12/10 14/11/10
f 4/33/11 15/34/11 14/35/11 8/36/11
f 6/37/12 13/38/12 16/39/12 2/40/12
f 2/40/13 16/39/13 15/34/13 4/33/13
f 8/36/14 14/35/14 13/38/14 6/37/14
g Platform.001_Cube.001
v 1.779279 0.000111 0.220721
v 1.836800 1.317976 0.163200
v 1.779279 0.000111 -0.220721
v 1.836800 1.317976 -0.163200
v 2.220721 0.000111 0.220721
v 2.163200 1.317976 0.163200
v 2.220721 0.000111 -0.220721
v 2.163200 1.317976 -0.163200
v 2.500000 1.720833 0.500000
v 2.500000 1.720833 -0.500000
v 1.500000 1.720833 0.500000
v 1.500000 1.720833 -0.500000
v 2.459363 1.508374 0.459362
v 2.459363 1.508374 -0.459362
v 1.540637 1.508374 -0.459362
v 1.540637 1.508374 0.459362
vt 0.371727 0.371727
vt 0.371727 0.628273
vt 0.628273 0.628273
vt 0.628273 0.371727
vt 0.405156 0.582334
vt 0.594844 0.582334
vt 0.628273 -0.183545
vt 0.371727 -0.183545
vt 0.405156 0.582334
vt 0.371727 -0.183545
vt 0.766959 0.692984
vt 0.790576 0.816455
vt 0.209424 0.816455
vt 0.233041 0.692984
vt 0.405156 0.582334
vt 0.594844 0.582334
vt 0.628273 -0.183545
vt 0.371727 -0.183545
vt 0.594844 0.582334
vt 0.628273 -0.183545
vt 0.790576 0.209424
vt 0.790576 0.790576
vt 0.209424 0.790576
vt 0.209424 0.209424
vt 0.233041 0.692984
vt 0.209424 0.816455
vt 0.790576 0.816455
vt 0.766959 0.692984
vt 0.766959 0.692984
vt 0.790576 0.816455
vt 0.233041 0.692984
vt 0.209424 0.816455
vt 0.405156 0.594844
vt 0.233041 0.766959
vt 0.766959 0.766959
vt 0.594844 0.594844
vt 0.594844 0.405156
vt 0.766959 0.233041
vt 0.233041 0.233041
vt 0.405156 0.405156
vn 0.0000 -1.0000 0.0000
vn 0.0000 0.0436 -0.9990
vn 0.9990 0.0436 0.0000
vn 0.9822 -0.1879 0.0000
vn -0.9990 0.0436 0.0000
vn 0.0000 0.0436 0.9990
vn 0.0000 1.0000 0.0000
vn -0.9822 -0.1879 0.0000
vn 0.0000 -0.1879 0.9822
vn 0.0000 -0.1879 -0.9822
vn 0.0000 -0.8412 -0.5408
vn 0.0000 -0.8412 0.5408
vn -0.5408 -0.8412 0.0000
vn 0.5408 -0.8412 0.0000
usemtl Material
s off
f 17/41/15 19/42/15 23/43/15 21/44/15
f 20/45/16 24/46/16 23/47/16 19/48/16
f 24/46/17 22/49/17 21/50/17 23/47/17
f 30/51/18 26/52/18 25/53/18 29/54/18
f 18/55/19 20/56/19 19/57/19 17/58/19
f 22/59/20 18/55/20 17/58/20 21/60/20
f 25/61/21 26/62/21 28/63/21 27/64/21
f 32/65/22 27/66/22 28/67/22 31/68/22
f 29/69/23 25/70/23 27/66/23 32/65/23
f 31/71/24 28/72/24 26/52/24 30/51/24
f 20/73/25 31/74/25 30/75/25 24/76/25
f 22/77/26 29/78/26 32/79/26 18/80/26
f 18/80/27 32/79/27 31/74/27 20/73/27
f 24/76/28 30/75/28 29/78/28 22/77/28
g Platform.002_Cube.002
v 3.779279 0.000111 0.220721
v 3.836800 1.317976 0.163200
v 3.779279 0.000111 -0.220721
v 3.836800 1.317976 -0.163200
v 4.220721 0.000111 0.220721
v 4.163200 1.317976 0.163200
v 4.220721 0.000111 -0.220721
v 4.163200 1.317976 -0.163200
v 4.500000 1.720833 0.500000
v 4.500000 1.720833 -0.500000
v 3.500000 1.720833 0.500000
v 3.500000 1.720833 -0.500000
v 4.459363 1.508374 0.459362
v 4.459363 1.508374 -0.459362
v 3.540637 1.508374 -0.459362
v 3.540637 1.508374 0.459362
vt 0.371727 0.371727
vt 0.371727 0.628273
vt 0.628273 0.628273
vt 0.628273 0.371727
vt 0.405156 0.582334
vt 0.594844 0.582334
vt 0.628273 -0.183545
vt 0.371727 -0.183545
vt 0.405156 0.582334
vt 0.371727 -0.183545
vt 0.766959 0.692984
vt 0.790576 0.816455
vt 0.209424 0.816455
vt 0.233041 0.692984
vt 0.405156 0.582334
vt 0.594844 0.582334
vt 0.628273 -0.183545
vt 0.371727 -0.183545
vt 0.594844 0.582334
vt 0.628273 -0.183545
vt 0.790576 0.209424
vt 0.790576 0.790576
vt 0.209424 0.790576
vt 0.209424 0.209424
vt 0.233041 0.692984
vt 0.209424 0.816455
vt 0.790576 0.816455
vt 0.766959 0.692984
vt 0.766959 0.692984
vt 0.790576 0.816455
vt 0.233041 0.692984
vt 0.209424 0.816455
vt 0.405156 0.594844
vt 0.233041 0.766959
vt 0.766959 0.766959
vt 0.594844 0.594844
vt 0.594844 0.405156
vt 0.766959 0.233041
vt 0.233041 0.233041
vt 0.405156 0.405156
vn 0.0000 -1.0000 0.0000
vn 0.0000 0.0436 -0.9990
vn 0.9990 0.0436 0.0000
vn 0.9822 -0.1879 0.0000
vn -0.9990 0.0436 0.0000
vn 0.0000 0.0436 0.9990
vn 0.0000 1.0000 0.0000
vn -0.9822 -0.1879 0.0000
vn 0.0000 -0.1879 0.9822
vn 0.0000 -0.1879 -0.9822
vn 0.0000 -0.8412 -0.5408
vn 0.0000 -0.8412 0.5408
vn -0.5408 -0.8412 0.0000
vn 0.5408 -0.8412 0.0000
usemtl Material
s off
f 33/81/29 35/82/29 39/83/29 37/84/29
f 36/85/30 40/86/30 39/87/30 35/88/30
f 40/86/31 38/89/31 37/90/31 39/87/31
f 46/91/32 42/92/32 41/93/32 45/94/32
f 34/95/33 36/96/33 35/97/33 33/98/33
f 38/99/34 34/95/34 33/98/34 37/100/34
f 41/101/35 42/102/35 44/103/35 43/104/35
f 48/105/36 43/106/36 44/107/36 47/108/36
f 45/109/37 41/110/37 43/106/37 48/105/37
f 47/111/38 44/112/38 42/92/38 46/91/38
f 36/113/39 47/114/39 46/115/39 40/116/39
f 38/117/40 45/118/40 48/119/40 34/120/40
f 34/120/41 48/119/41 47/114/41 36/113/41
f 40/116/42 46/115/42 45/118/42 38/117/42
g Platform.003_Cube.003
v -0.220721 0.000111 -1.779279
v -0.163200 1.317976 -1.836800
v -0.220721 0.000111 -2.220721
v -0.163200 1.317976 -2.163200
v 0.220721 0.000111 -1.779279
v 0.163200 1.317976 -1.836800
v 0.220721 0.000111 -2.220721
v 0.163200 1.317976 -2.163200
v 0.500000 1.720833 -1.500000
v 0.500000 1.720833 -2.500000
v -0.500000 1.720833 -1.500000
v -0.500000 1.720833 -2.500000
v 0.459362 1.508374 -1.540637
v 0.459362 1.508374 -2.459363
v -0.459362 1.508374 -2.459363
v -0.459362 1.508374 -1.540637
vt 0.371727 0.371727
vt 0.371727 0.628273
vt 0.628273 0.628273
vt 0.628273 0.371727
vt 0.405156 0.582334
vt 0.594844 0.582334
vt 0.628273 -0.183545
vt 0.371727 -0.183545
vt 0.405156 0.582334
vt 0.371727 -0.183545
vt 0.766959 0.692984
vt 0.790576 0.816455
vt 0.209424 0.816455
vt 0.233041 0.692984
vt 0.405156 0.582334
vt 0.594844 0.582334
vt 0.628273 -0.183545
vt 0.371727 -0.183545
vt 0.594844 0.582334
vt 0.628273 -0.183545
vt 0.790576 0.209424
vt 0.790576 0.790576
vt 0.209424 0.790576
vt 0.209424 0.209424
vt 0.233041 0.692984
vt 0.209424 0.816455
vt 0.790576 0.816455
vt 0.766959 0.692984
vt 0.766959 0.692984
vt 0.790576 0.816455
vt 0.233041 0.692984
vt 0.209424 0.816455
vt 0.405156 0.594844
vt 0.233041 0.766959
vt 0.766959 0.766959
vt 0.594844 0.594844
vt 0.594844 0.405156
vt 0.766959 0.233041
vt 0.233041 0.233041
vt 0.405156 0.405156
vn 0.0000 -1.0000 0.0000
vn 0.0000 0.0436 -0.9990
vn 0.9990 0.0436 0.0000
vn 0.9822 -0.1879 0.0000
vn -0.9990 0.0436 0.0000
vn 0.0000 0.0436 0.9990
vn 0.0000 1.0000 0.0000
vn -0.9822 -0.1879 0.0000
vn 0.0000 -0.1879 0.9822
vn 0.0000 -0.1879 -0.9822
vn 0.0000 -0.8412 -0.5408
vn 0.0000 -0.8412 0.5408
vn -0.5408 -0.8412 0.0000
vn 0.5408 -0.8412 0.0000
usemtl Material
s off
f 49/121/43 51/122/43 55/123/43 53/124/43
f 52/125/44 56/126/44 55/127/44 51/128/44
f 56/126/45 54/129/45 53/130/45 55/127/45
f 62/131/46 58/132/46 57/133/46 61/134/46
f 50/135/47 52/136/47 51/137/47 49/138/47
f 54/139/48 50/135/48 49/138/48 53/140/48
f 57/141/49 58/142/49 60/143/49 59/144/49
f 64/145/50 59/146/50 60/147/50 63/148/50
f 61/149/51 57/150/51 59/146/51 64/145/51
f 63/151/52 60/152/52 58/132/52 62/131/52
f 52/153/53 63/154/53 62/155/53 56/156/53
f 54/157/54 61/158/54 64/159/54 50/160/54
f 50/160/55 64/159/55 63/154/55 52/153/55
f 56/156/56 62/155/56 61/158/56 54/157/56
g Platform.004_Cube.004
v -0.220721 0.000111 2.220721
v -0.163200 1.317976 2.163200
v -0.220721 0.000111 1.779279
v -0.163200 1.317976 1.836800
v 0.220721 0.000111 2.220721
v 0.163200 1.317976 2.163200
v 0.220721 0.000111 1.779279
v 0.163200 1.317976 1.836800
v 0.500000 1.720833 2.500000
v 0.500000 1.720833 1.500000
v -0.500000 1.720833 2.500000
v -0.500000 1.720833 1.500000
v 0.459362 1.508374 2.459363
v 0.459362 1.508374 1.540637
v -0.459362 1.508374 1.540637
v -0.459362 1.508374 2.459363
vt 0.371727 0.371727
vt 0.371727 0.628273
vt 0.628273 0.628273
vt 0.628273 0.371727
vt 0.405156 0.582334
vt 0.594844 0.582334
vt 0.628273 -0.183545
vt 0.371727 -0.183545
vt 0.405156 0.582334
vt 0.371727 -0.183545
vt 0.766959 0.692984
vt 0.790576 0.816455
vt 0.209424 0.816455
vt 0.233041 0.692984
vt 0.405156 0.582334
vt 0.594844 0.582334
vt 0.628273 -0.183545
vt 0.371727 -0.183545
vt 0.594844 0.582334
vt 0.628273 -0.183545
vt 0.790576 0.209424
vt 0.790576 0.790576
vt 0.209424 0.790576
vt 0.209424 0.209424
vt 0.233041 0.692984
vt 0.209424 0.816455
vt 0.790576 0.816455
vt 0.766959 0.692984
vt 0.766959 0.692984
vt 0.790576 0.816455
vt 0.233041 0.692984
vt 0.209424 0.816455
vt 0.405156 0.594844
vt 0.233041 0.766959
vt 0.766959 0.766959
vt 0.594844 0.594844
vt 0.594844 0.405156
vt 0.766959 0.233041
vt 0.233041 0.233041
vt 0.405156 0.405156
vn 0.0000 -1.0000 0.0000
vn 0.0000 0.0436 -0.9990
vn 0.9990 0.0436 0.0000
vn 0.9822 -0.1879 0.0000
vn -0.9990 0.0436 0.0000
vn 0.0000 0.0436 0.9990
vn 0.0000 1.0000 0.0000
vn -0.9822 -0.1879 0.0000
vn 0.0000 -0.1879 0.9822
vn 0.0000 -0.1879 -0.9822
vn 0.0000 -0.8412 -0.5408
vn 0.0000 -0.8412 0.5408
vn -0.5408 -0.8412 0.0000
vn 0.5408 -0.8412 0.0000
usemtl Material
s off
f 65/161/57 67/162/57 71/163/57 69/164/57
f 68/165/58 72/166/58 71/167/58 67/168/58
f 72/166/59 70/169/59 69/170/59 71/167/59
f 78/171/60 74/172/60 73/173/60 77/174/60
f 66/175/61 68/176/61 67/177/61 65/178/61
f 70/179/62 66/175/62 65/178/62 69/180/62
f 73/181/63 74/182/63 76/183/63 75/184/63
f 80/185/64 75/186/64 76/187/64 79/188/64
f 77/189/65 73/190/65 75/186/65 80/185/65
f 79/191/66 76/192/66 74/172/66 78/171/66
f 68/193/67 79/194/67 78/195/67 72/196/67
f 70/197/68 77/198/68 80/199/68 66/200/68
f 66/200/69 80/199/69 79/194/69 68/193/69
f 72/196/70 78/195/70 77/198/70 70/197/70
g Platform.005_Cube.005
v -2.220721 0.000111 -1.779279
v -2.163200 1.317976 -1.836800
v -2.220721 0.000111 -2.220721
v -2.163200 1.317976 -2.163200
v -1.779279 0.000111 -1.779279
v -1.836800 1.317976 -1.836800
v -1.779279 0.000111 -2.220721
v -1.836800 1.317976 -2.163200
v -1.500000 1.720833 -1.500000
v -1.500000 1.720833 -2.500000
v -2.500000 1.720833 -1.500000
v -2.500000 1.720833 -2.500000
v -1.540637 1.508374 -1.540637
v -1.540637 1.508374 -2.459363
v -2.459363 1.508374 -2.459363
v -2.459363 1.508374 -1.540637
vt 0.371727 0.371727
vt 0.371727 0.628273
vt 0.628273 0.628273
vt 0.628273 0.371727
vt 0.405156 0.582334
vt 0.594844 0.582334
vt 0.628273 -0.183545
vt 0.371727 -0.183545
vt 0.405156 0.582334
vt 0.371727 -0.183545
vt 0.766959 0.692984
vt 0.790576 0.816455
vt 0.209424 0.816455
vt 0.233041 0.692984
vt 0.405156 0.582334
vt 0.594844 0.582334
vt 0.628273 -0.183545
vt 0.371727 -0.183545
vt 0.594844 0.582334
vt 0.628273 -0.183545
vt 0.790576 0.209424
vt 0.790576 0.790576
vt 0.209424 0.790576
vt 0.209424 0.209424
vt 0.233041 0.692984
vt 0.209424 0.816455
vt 0.790576 0.816455
vt 0.766959 0.692984
vt 0.766959 0.692984
vt 0.790576 0.816455
vt 0.233041 0.692984
vt 0.209424 0.816455
vt 0.405156 0.594844
vt 0.233041 0.766959
vt 0.766959 0.766959
vt 0.594844 0.594844
vt 0.594844 0.405156
vt 0.766959 0.233041
vt 0.233041 0.233041
vt 0.405156 0.405156
vn 0.0000 -1.0000 0.0000
vn 0.0000 0.0436 -0.9990
vn 0.9990 0.0436 0.0000
vn 0.9822 -0.1879 0.0000
vn -0.9990 0.0436 0.0000
vn 0.0000 0.0436 0.9990
vn 0.0000 1.0000 0.0000
vn -0.9822 -0.1879 0.0000
vn 0.0000 -0.1879 0.9822
vn 0.0000 -0.1879 -0.9822
vn 0.0000 -0.8412 -0.5408
vn 0.0000 -0.8412 0.5408
vn -0.5408 -0.8412 0.0000
vn 0.5408 -0.8412 0.0000
usemtl Material
s off
f 81/201/71 83/202/71 87/203/71 85/204/71
f 84/205/72 88/206/72 87/207/72 83/208/72
f 88/206/73 86/209/73 85/210/73 87/207/73
f 94/211/74 90/212/74 89/213/74 93/214/74
f 82/215/75 84/216/75 83/217/75 81/218/75
f 86/219/76 82/215/76 81/218/76 85/220/76
f 89/221/77 90/222/77 92/223/77 91/224/77
f 96/225/78 91/226/78 92/227/78 95/228/78
f 93/229/79 89/230/79 91/226/79 96/225/79
f 95/231/80 92/232/80 90/212/80 94/211/80
f 84/233/81 95/234/81 94/235/81 88/236/81
f 86/237/82 93/238/82 96/239/82 82/240/82
f 82/240/83 96/239/83 95/234/83 84/233/83
f 88/236/84 94/235/84 93/238/84 86/237/84
g Platform.006_Cube.006
v 1.779279 0.000111 -1.779279
v 1.836800 1.317976 -1.836800
v 1.779279 0.000111 -2.220721
v 1.836800 1.317976 -2.163200
v 2.220721 0.000111 -1.779279
v 2.163200 1.317976 -1.836800
v 2.220721 0.000111 -2.220721
v 2.163200 1.317976 -2.163200
v 2.500000 1.720833 -1.500000
v 2.500000 1.720833 -2.500000
v 1.500000 1.720833 -1.500000
v 1.500000 1.720833 -2.500000
v 2.459363 1.508374 -1.540637
v 2.459363 1.508374 -2.459363
v 1.540637 1.508374 -2.459363
v 1.540637 1.508374 -1.540637
vt 0.371727 0.371727
vt 0.371727 0.628273
vt 0.628273 0.628273
vt 0.628273 0.371727
vt 0.405156 0.582334
vt 0.594844 0.582334
vt 0.628273 -0.183545
vt 0.371727 -0.183545
vt 0.405156 0.582334
vt 0.371727 -0.183545
vt 0.766959 0.692984
vt 0.790576 0.816455
vt 0.209424 0.816455
vt 0.233041 0.692984
vt 0.405156 0.582334
vt 0.594844 0.582334
vt 0.628273 -0.183545
vt 0.371727 -0.183545
vt 0.594844 0.582334
vt 0.628273 -0.183545
vt 0.790576 0.209424
vt 0.790576 0.790576
vt 0.209424 0.790576
vt 0.209424 0.209424
vt 0.233041 0.692984
vt 0.209424 0.816455
vt 0.790576 0.816455
vt 0.766959 0.692984
vt 0.766959 0.692984
vt 0.790576 0.816455
vt 0.233041 0.692984
vt 0.209424 0.816455
vt 0.405156 0.594844
vt 0.233041 0.766959
vt 0.766959 0.766959
vt 0.594844 0.594844
vt 0.594844 0.405156
vt 0.766959 0.233041
vt 0.233041 0.233041
vt 0.405156 0.405156
vn 0.0000 -1.0000 0.0000
vn 0.0000 0.0436 -0.9990
vn 0.9990 0.0436 0.0000
vn 0.9822 -0.1879 0.0000
vn -0.9990 0.0436 0.0000
vn 0.0000 0.0436 0.9990
vn 0.0000 1.0000 0.0000
vn -0.9822 -0.1879 0.0000
vn 0.0000 -0.1879 0.9822
vn 0.0000 -0.1879 -0.9822
vn 0.0000 -0.8412 -0.5408
vn 0.0000 -0.8412 0.5408
vn -0.5408 -0.8412 0.0000
vn 0.5408 -0.8412 0.0000
usemtl Material
s off
f 97/241/85 99/242/85 103/243/85 101/244/85
f 100/245/86 104/246/86 103/247/86 99/248/86
f 104/246/87 102/249/87 101/250/87 103/247/87
f 110/251/88 106/252/88 105/253/88 109/254/88
f 98/255/89 100/256/89 99/257/89 97/258/89
f 102/259/90 98/255/90 97/258/90 101/260/90
f 105/261/91 106/262/91 108/263/91 107/264/91
f 112/265/92 107/266/92 108/267/92 111/268/92
f 109/269/93 105/270/93 107/266/93 112/265/93
f 111/271/94 108/272/94 106/252/94 110/251/94
f 100/273/95 111/274/95 110/275/95 104/276/95
f 102/277/96 109/278/96 112/279/96 98/280/96
f 98/280/97 112/279/97 111/274/97 100/273/97
f 104/276/98 110/275/98 109/278/98 102/277/98
g Platform.007_Cube.007
v 1.779279 0.000111 2.220721
v 1.836800 1.317976 2.163200
v 1.779279 0.000111 1.779279
v 1.836800 1.317976 1.836800
v 2.220721 0.000111 2.220721
v 2.163200 1.317976 2.163200
v 2.220721 0.000111 1.779279
v 2.163200 1.317976 1.836800
v 2.500000 1.720833 2.500000
v 2.500000 1.720833 1.500000
v 1.500000 1.720833 2.500000
v 1.500000 1.720833 1.500000
v 2.459363 1.508374 2.459363
v 2.459363 1.508374 1.540637
v 1.540637 1.508374 1.540637
v 1.540637 1.508374 2.459363
vt 0.371727 0.371727
vt 0.371727 0.628273
vt 0.628273 0.628273
vt 0.628273 0.371727
vt 0.405156 0.582334
vt 0.594844 0.582334
vt 0.628273 -0.183545
vt 0.371727 -0.183545
vt 0.405156 0.582334
vt 0.371727 -0.183545
vt 0.766959 0.692984
vt 0.790576 0.816455
vt 0.209424 0.816455
vt 0.233041 0.692984
vt 0.405156 0.582334
vt 0.594844 0.582334
vt 0.628273 -0.183545
vt 0.371727 -0.183545
vt 0.594844 0.582334
vt 0.628273 -0.183545
vt 0.790576 0.209424
vt 0.790576 0.790576
vt 0.209424 0.790576
vt 0.209424 0.209424
vt 0.233041 0.692984
vt 0.209424 0.816455
vt 0.790576 0.816455
vt 0.766959 0.692984
vt 0.766959 0.692984
vt 0.790576 0.816455
vt 0.233041 0.692984
vt 0.209424 0.816455
vt 0.405156 0.594844
vt 0.233041 0.766959
vt 0.766959 0.766959
vt 0.594844 0.594844
vt 0.594844 0.405156
vt 0.766959 0.233041
vt 0.233041 0.233041
vt 0.405156 0.405156
vn 0.0000 -1.0000 0.0000
vn 0.0000 0.0436 -0.9990
vn 0.9990 0.0436 0.0000
vn 0.9822 -0.1879 0.0000
vn -0.9990 0.0436 0.0000
vn 0.0000 0.0436 0.9990
vn 0.0000 1.0000 0.0000
vn -0.9822 -0.1879 0.0000
vn 0.0000 -0.1879 0.9822
vn 0.0000 -0.1879 -0.9822
vn 0.0000 -0.8412 -0.5408
vn 0.0000 -0.8412 0.5408
vn -0.5408 -0.8412 0.0000
vn 0.5408 -0.8412 0.0000
usemtl Material
s off
f 113/281/99 115/282/99 119/283/99 117/284/99
f 116/285/100 120/286/100 119/287/100 115/288/100
f 120/286/101 118/289/101 117/290/101 119/287/101
f 126/291/102 122/292/102 121/293/102 125/294/102
f 114/295/103 116/296/103 115/297/103 113/298/103
f 118/299/104 114/295/104 113/298/104 117/300/104
f 121/301/105 122/302/105 124/303/105 123/304/105
f 128/305/106 123/306/106 124/307/106 127/308/106
f 125/309/107 121/310/107 123/306/107 128/305/107
f 127/311/108 124/312/108 122/292/108 126/291/108
f 116/313/109 127/314/109 126/315/109 120/316/109
f 118/317/110 125/318/110 128/319/110 114/320/110
f 114/320/111 128/319/111 127/314/111 116/313/111
f 120/316/112 126/315/112 125/318/112 118/317/112
g Platform.008_Cube.008
v -4.220721 0.000111 0.220721
v -4.163200 1.317976 0.163200
v -4.220721 0.000111 -0.220721
v -4.163200 1.317976 -0.163200
v -3.779279 0.000111 0.220721
v -3.836800 1.317976 0.163200
v -3.779279 0.000111 -0.220721
v -3.836800 1.317976 -0.163200
v -3.500000 1.720833 0.500000
v -3.500000 1.720833 -0.500000
v -4.500000 1.720833 0.500000
v -4.500000 1.720833 -0.500000
v -3.540637 1.508374 0.459362
v -3.540637 1.508374 -0.459362
v -4.459363 1.508374 -0.459362
v -4.459363 1.508374 0.459362
vt 0.371727 0.371727
vt 0.371727 0.628273
vt 0.628273 0.628273
vt 0.628273 0.371727
vt 0.405156 0.582334
vt 0.594844 0.582334
vt 0.628273 -0.183545
vt 0.371727 -0.183545
vt 0.405156 0.582334
vt 0.371727 -0.183545
vt 0.766959 0.692984
vt 0.790576 0.816455
vt 0.209424 0.816455
vt 0.233041 0.692984
vt 0.405156 0.582334
vt 0.594844 0.582334
vt 0.628273 -0.183545
vt 0.371727 -0.183545
vt 0.594844 0.582334
vt 0.628273 -0.183545
vt 0.790576 0.209424
vt 0.790576 0.790576
vt 0.209424 0.790576
vt 0.209424 0.209424
vt 0.233041 0.692984
vt 0.209424 0.816455
vt 0.790576 0.816455
vt 0.766959 0.692984
vt 0.766959 0.692984
vt 0.790576 0.816455
vt 0.233041 0.692984
vt 0.209424 0.816455
vt 0.405156 0.594844
vt 0.233041 0.766959
vt 0.766959 0.766959
vt 0.594844 0.594844
vt 0.594844 0.405156
vt 0.766959 0.233041
vt 0.233041 0.233041
vt 0.405156 0.405156
vn 0.0000 -1.0000 0.0000
vn 0.0000 0.0436 -0.9990
vn 0.9990 0.0436 0.0000
vn 0.9822 -0.1879 0.0000
vn -0.9990 0.0436 0.0000
vn 0.0000 0.0436 0.9990
vn 0.0000 1.0000 0.0000
vn -0.9822 -0.1879 0.0000
vn 0.0000 -0.1879 0.9822
vn 0.0000 -0.1879 -0.9822
vn 0.0000 -0.8412 -0.5408
vn 0.0000 -0.8412 0.5408
vn -0.5408 -0.8412 0.0000
vn 0.5408 -0.8412 0.0000
usemtl Material
s off
f 129/321/113 131/322/113 135/323/113 133/324/113
f 132/325/114 136/326/114 135/327/114 131/328/114
f 136/326/115 134/329/115 133/330/115 135/327/115
f 142/331/116 138/332/116 137/333/116 141/334/116
f 130/335/117 132/336/117 131/337/117 129/338/117
f 134/339/118 130/335/118 129/338/118 133/340/118
f 137/341/119 138/342/119 140/343/119 139/344/119
f 144/345/120 139/346/120 140/347/120 143/348/120
f 141/349/121 137/350/121 139/346/121 144/345/121
f 143/351/122 140/352/122 138/332/122 142/331/122
f 132/353/123 143/354/123 142/355/123 136/356/123
f 134/357/124 141/358/124 144/359/124 130/360/124
f 130/360/125 144/359/125 143/354/125 132/353/125
f 136/356/126 142/355/126 141/358/126 134/357/126
g Broken_Platform_Cube.017
v -2.220721 0.000111 2.220721
v -2.091985 0.676037 2.113900
v -2.220721 0.000111 1.779279
v -2.141164 0.641517 1.933109
v -1.779279 0.000111 2.220721
v -1.829288 0.596096 2.107021
v -1.779279 0.000111 1.779279
v -1.879581 0.560064 1.834681
v -2.093080 0.583246 1.985100
v -2.064322 0.695064 1.869976
v -2.053066 0.542657 2.148081
v -1.913809 0.635102 1.936851
v -2.042940 0.518187 1.977242
vt 0.202610 0.169951
vt 0.202610 0.805164
vt 0.837823 0.805164
vt 0.837823 0.169951
vt 0.317089 0.735676
vt 0.427660 0.812726
vt 0.693493 0.618469
vt 0.837823 -0.187274
vt 0.202610 -0.187274
vt 0.725443 0.618469
vt 0.578426 0.726445
vt 0.333560 0.670317
vt 0.169951 -0.187274
vt 0.805164 -0.187274
vt 0.323661 0.785348
vt 0.508998 0.651826
vt 0.583810 0.735676
vt 0.805164 -0.187274
vt 0.169951 -0.187274
vt 0.765862 0.670317
vt 0.443857 0.593421
vt 0.387854 0.785348
vt 0.202610 -0.187274
vt 0.837823 -0.187274
vt 0.644241 0.578426
vt 0.693493 0.725443
vt 0.427660 0.674655
vt 0.458428 0.558210
vt 0.274477 0.593421
vt 0.520306 0.558210
vt 0.644241 0.726445
vt 0.458428 0.520306
vt 0.765862 0.333560
vt 0.443857 0.274477
vn 0.0000 -1.0000 0.0000
vn -0.1355 0.1411 -0.9807
vn 0.9847 0.1525 -0.0842
vn -0.9831 0.1729 0.0601
vn 0.0225 0.1604 0.9868
vn 0.4879 0.7735 -0.4046
vn 0.2947 0.5213 0.8009
vn 0.9561 0.2338 -0.1765
vn 0.7890 0.6130 -0.0410
vn 0.7889 0.6131 -0.0424
vn -0.1811 0.4939 0.8505
vn -0.5283 0.7321 0.4302
vn -0.2559 0.9547 -0.1519
usemtl Material
s off
f 145/361/127 147/362/127 151/363/127 149/364/127
f 148/365/128 154/366/128 152/367/128 151/368/128 147/369/128
f 152/370/129 156/371/129 150/372/129 149/373/129 151/374/129
f 146/375/130 153/376/130 148/377/130 147/378/130 145/379/130
f 150/380/131 155/381/131 146/382/131 145/383/131 149/384/131
f 156/385/132 152/386/132 154/387/132
f 148/365/133 157/388/133 154/366/133
f 146/375/134 155/389/134 153/376/134
f 155/389/135 157/390/135 153/376/135
f 153/376/136 157/390/136 148/377/136
f 156/391/137 154/366/137 157/388/137
f 156/385/138 157/392/138 150/393/138
f 150/393/139 157/392/139 155/394/139
