# Blender v2.80 (sub 75) OBJ File: 'JSch_Level_1_Build.blend'
# www.blender.org
mtllib JSch_Level_1 Door Frames.mtl
g Exit_Door_Frame_Cube.020
v 0.981647 1.728365 -7.352678
v 0.784149 2.087556 -7.352678
v 0.527506 1.728365 -7.352678
v 0.527506 2.182507 -7.352678
v 0.981647 1.728365 -7.806820
v 0.784149 2.087556 -7.806820
v 0.527506 1.728365 -7.806820
v 0.527506 2.182507 -7.806820
v 0.898090 3.590436 -7.352678
v 0.527506 3.704377 -7.352678
v 0.527506 3.704377 -7.806820
v 0.898090 3.590436 -7.806820
v 0.981647 3.232599 -7.352678
v 0.527506 3.232599 -7.352678
v 0.981647 3.232599 -7.806820
v 0.527506 3.232599 -7.806820
v -0.984546 1.728365 -7.352678
v -0.787047 2.087556 -7.352678
v -0.530404 1.728365 -7.352678
v -0.530404 2.182507 -7.352678
v -0.984546 1.728365 -7.806820
v -0.787047 2.087556 -7.806820
v -0.530404 1.728365 -7.806820
v -0.530404 2.182507 -7.806820
v -0.900989 3.590436 -7.352678
v -0.530404 3.704377 -7.352678
v -0.530404 3.704377 -7.806820
v -0.900989 3.590436 -7.806820
v -0.984546 3.232599 -7.352678
v -0.530404 3.232599 -7.352678
v -0.984546 3.232599 -7.806820
v -0.530404 3.232599 -7.806820
v -0.001449 3.704377 -7.352678
v -0.001449 3.704377 -7.806820
v -0.001449 3.232599 -7.352678
v -0.001449 3.232599 -7.806820
vt 0.000000 0.514731
vt 0.050224 0.421165
vt 0.115488 0.396431
vt 0.115488 0.514731
vt 0.461950 0.904154
vt 0.461950 0.786584
vt 0.577438 0.786584
vt 0.577438 0.904154
vt 0.884512 0.514731
vt 0.884512 0.396431
vt 0.949776 0.421165
vt 1.000000 0.514731
vt 0.000000 1.000000
vt 0.000000 0.905845
vt 0.115488 0.905845
vt 0.115488 1.000000
vt 0.692925 0.755915
vt 0.808413 0.755915
vt 0.808413 0.874214
vt 0.692925 0.874214
vt 0.115487 0.122893
vt 0.000000 0.122893
vt 0.021248 0.029681
vt 0.115487 0.000000
vt 0.346463 0.611264
vt 0.230975 0.611264
vt 0.230975 0.514731
vt 0.346463 0.514731
vt 0.115488 0.608189
vt 0.000000 0.608189
vt 0.000000 0.514731
vt 0.115488 0.514731
vt 0.692925 0.790305
vt 0.577438 0.790305
vt 0.577438 0.652518
vt 0.692925 0.652518
vt 1.000000 0.122893
vt 0.884512 0.122893
vt 0.884512 0.000000
vt 0.978751 0.029681
vt 0.461950 0.514731
vt 0.577438 0.514731
vt 0.750000 0.122893
vt 0.750000 0.000000
vt 0.250000 0.000000
vt 0.250000 0.122893
vt 0.346463 0.749051
vt 0.230975 0.749051
vt 0.500000 0.514731
vt 0.384512 0.514731
vt 0.384512 0.396431
vt 0.449776 0.421165
vt 0.461950 0.906542
vt 0.346463 0.906542
vt 0.346463 0.788250
vt 0.461950 0.788250
vt 0.615488 0.514731
vt 0.500000 0.514731
vt 0.550224 0.421165
vt 0.615488 0.396431
vt 0.115488 0.514731
vt 0.230975 0.514731
vt 0.230975 0.613421
vt 0.115488 0.613421
vt 0.692925 0.755915
vt 0.692925 0.637616
vt 0.808413 0.637616
vt 0.808413 0.755915
vt 0.384512 0.122893
vt 0.384512 0.000000
vt 0.478751 0.029681
vt 0.500000 0.122893
vt 0.346463 0.886839
vt 0.346463 0.983372
vt 0.230975 0.983372
vt 0.230975 0.886839
vt 0.230975 0.904154
vt 0.230975 0.999205
vt 0.115488 0.999205
vt 0.115488 0.904154
vt 0.692925 0.514731
vt 0.577438 0.514731
vt 0.500000 0.122893
vt 0.521248 0.029681
vt 0.615488 0.000000
vt 0.615488 0.122893
vt 0.346463 0.514731
vt 0.461950 0.514731
vt 0.692925 0.637616
vt 0.692925 0.514731
vt 0.808413 0.514731
vt 0.808413 0.637616
vn 0.0000 0.0000 1.0000
vn -1.0000 0.0000 0.0000
vn 0.0000 0.0000 -1.0000
vn 0.8763 0.4818 0.0000
vn 0.0000 -1.0000 0.0000
vn 0.2939 0.9558 0.0000
vn 0.9738 0.2274 0.0000
vn 0.9854 -0.1700 0.0000
vn 0.0000 1.0000 0.0000
vn 1.0000 0.0000 0.0000
vn -0.8763 0.4818 0.0000
vn -0.2939 0.9558 0.0000
vn -0.9738 0.2274 0.0000
vn -0.9854 -0.1700 0.0000
usemtl None
s off
f 1/1/1 2/2/1 4/3/1 3/4/1
f 3/5/2 4/6/2 8/7/2 7/8/2
f 7/9/3 8/10/3 6/11/3 5/12/3
f 5/13/4 6/14/4 2/15/4 1/16/4
f 3/17/5 7/18/5 5/19/5 1/20/5
f 14/21/1 13/22/1 9/23/1 10/24/1
f 11/25/6 10/26/6 9/27/6 12/28/6
f 13/29/7 15/30/7 12/31/7 9/32/7
f 16/33/5 14/34/5 35/35/5 36/36/5
f 15/37/3 16/38/3 11/39/3 12/40/3
f 6/11/3 8/10/3 16/38/3 15/37/3
f 8/7/2 4/6/2 14/41/2 16/42/2
f 2/15/8 6/14/8 15/30/8 13/29/8
f 4/3/1 2/2/1 13/22/1 14/21/1
f 11/39/3 16/38/3 36/43/3 34/44/3
f 14/21/1 10/24/1 33/45/1 35/46/1
f 10/26/9 11/25/9 34/47/9 33/48/9
f 17/49/1 19/50/1 20/51/1 18/52/1
f 19/53/10 23/54/10 24/55/10 20/56/10
f 23/57/3 21/58/3 22/59/3 24/60/3
f 21/61/11 17/62/11 18/63/11 22/64/11
f 19/65/5 17/66/5 21/67/5 23/68/5
f 30/69/1 26/70/1 25/71/1 29/72/1
f 27/73/12 28/74/12 25/75/12 26/76/12
f 29/77/13 25/78/13 28/79/13 31/80/13
f 32/81/5 36/36/5 35/35/5 30/82/5
f 31/83/3 28/84/3 27/85/3 32/86/3
f 22/59/3 31/83/3 32/86/3 24/60/3
f 24/55/10 32/87/10 30/88/10 20/56/10
f 18/63/14 29/77/14 31/80/14 22/64/14
f 20/51/1 30/69/1 29/72/1 18/52/1
f 36/89/10 34/90/10 33/91/10 35/92/10
f 27/85/3 34/44/3 36/43/3 32/86/3
f 30/69/1 35/46/1 33/45/1 26/70/1
f 26/76/9 33/48/9 34/47/9 27/73/9
g Entrance_Door_Frame_Cube.022
v 7.714794 1.728365 -0.991427
v 7.714794 2.087556 -0.793929
v 7.714794 1.728365 -0.537286
v 7.714794 2.182507 -0.537286
v 7.260652 1.728365 -0.991427
v 7.260652 2.087556 -0.793929
v 7.260652 1.728365 -0.537286
v 7.260652 2.182507 -0.537286
v 7.714794 3.590436 -0.907870
v 7.714794 3.704377 -0.537286
v 7.260652 3.704377 -0.537286
v 7.260652 3.590436 -0.907870
v 7.714794 3.232599 -0.991427
v 7.714794 3.232599 -0.537286
v 7.260652 3.232599 -0.991427
v 7.260652 3.232599 -0.537286
v 7.714794 1.728365 0.974766
v 7.714794 2.087556 0.777268
v 7.714794 1.728365 0.520625
v 7.714794 2.182507 0.520625
v 7.260653 1.728365 0.974766
v 7.260652 2.087556 0.777268
v 7.260652 1.728365 0.520625
v 7.260652 2.182507 0.520625
v 7.714794 3.590436 0.891209
v 7.714794 3.704377 0.520625
v 7.260652 3.704377 0.520625
v 7.260653 3.590436 0.891209
v 7.714794 3.232599 0.974766
v 7.714794 3.232599 0.520625
v 7.260653 3.232599 0.974766
v 7.260652 3.232599 0.520625
v 7.714794 3.704377 -0.008331
v 7.260652 3.704377 -0.008330
v 7.714794 3.232599 -0.008331
v 7.260652 3.232599 -0.008330
vt 0.000000 0.514731
vt 0.050224 0.421165
vt 0.115488 0.396431
vt 0.115488 0.514731
vt 0.461950 0.904154
vt 0.461950 0.786584
vt 0.577438 0.786584
vt 0.577438 0.904154
vt 0.884512 0.514731
vt 0.884512 0.396431
vt 0.949776 0.421165
vt 1.000000 0.514731
vt 0.000000 1.000000
vt 0.000000 0.905845
vt 0.115488 0.905845
vt 0.115488 1.000000
vt 0.692925 0.755915
vt 0.808413 0.755915
vt 0.808413 0.874214
vt 0.692925 0.874214
vt 0.115487 0.122893
vt 0.000000 0.122893
vt 0.021248 0.029681
vt 0.115487 0.000000
vt 0.346463 0.611264
vt 0.230975 0.611264
vt 0.230975 0.514731
vt 0.346463 0.514731
vt 0.115488 0.608189
vt 0.000000 0.608189
vt 0.000000 0.514731
vt 0.115488 0.514731
vt 0.692925 0.790305
vt 0.577438 0.790305
vt 0.577438 0.652518
vt 0.692925 0.652518
vt 1.000000 0.122893
vt 0.884512 0.122893
vt 0.884512 0.000000
vt 0.978751 0.029681
vt 0.461950 0.514731
vt 0.577438 0.514731
vt 0.750000 0.122893
vt 0.750000 0.000000
vt 0.250000 0.000000
vt 0.250000 0.122893
vt 0.346463 0.749051
vt 0.230975 0.749051
vt 0.500000 0.514731
vt 0.384512 0.514731
vt 0.384512 0.396431
vt 0.449776 0.421165
vt 0.461950 0.906542
vt 0.346463 0.906542
vt 0.346463 0.788250
vt 0.461950 0.788250
vt 0.615488 0.514731
vt 0.500000 0.514731
vt 0.550224 0.421165
vt 0.615488 0.396431
vt 0.115488 0.514731
vt 0.230975 0.514731
vt 0.230975 0.613421
vt 0.115488 0.613421
vt 0.692925 0.755915
vt 0.692925 0.637616
vt 0.808413 0.637616
vt 0.808413 0.755915
vt 0.384512 0.122893
vt 0.384512 0.000000
vt 0.478751 0.029681
vt 0.500000 0.122893
vt 0.346463 0.886839
vt 0.346463 0.983372
vt 0.230975 0.983372
vt 0.230975 0.886839
vt 0.230975 0.904154
vt 0.230975 0.999205
vt 0.115488 0.999205
vt 0.115488 0.904154
vt 0.692925 0.514731
vt 0.577438 0.514731
vt 0.500000 0.122893
vt 0.521248 0.029681
vt 0.615488 0.000000
vt 0.615488 0.122893
vt 0.346463 0.514731
vt 0.461950 0.514731
vt 0.692925 0.637616
vt 0.692925 0.514731
vt 0.808413 0.514731
vt 0.808413 0.637616
vn 1.0000 0.0000 0.0000
vn 0.0000 0.0000 1.0000
vn -1.0000 0.0000 0.0000
vn -0.0000 0.4818 -0.8763
vn 0.0000 -1.0000 0.0000
vn -0.0000 0.9558 -0.2939
vn -0.0000 0.2274 -0.9738
vn -0.0000 -0.1700 -0.9854
vn 0.0000 1.0000 0.0000
vn -0.0000 0.0000 -1.0000
vn 0.0000 0.4818 0.8763
vn 0.0000 0.9558 0.2939
vn 0.0000 0.2274 0.9738
vn 0.0000 -0.1700 0.9854
usemtl None
s off
f 37/93/15 38/94/15 40/95/15 39/96/15
f 39/97/16 40/98/16 44/99/16 43/100/16
f 43/101/17 44/102/17 42/103/17 41/104/17
f 41/105/18 42/106/18 38/107/18 37/108/18
f 39/109/19 43/110/19 41/111/19 37/112/19
f 50/113/15 49/114/15 45/115/15 46/116/15
f 47/117/20 46/118/20 45/119/20 48/120/20
f 49/121/21 51/122/21 48/123/21 45/124/21
f 52/125/19 50/126/19 71/127/19 72/128/19
f 51/129/17 52/130/17 47/131/17 48/132/17
f 42/103/17 44/102/17 52/130/17 51/129/17
f 44/99/16 40/98/16 50/133/16 52/134/16
f 38/107/22 42/106/22 51/122/22 49/121/22
f 40/95/15 38/94/15 49/114/15 50/113/15
f 47/131/17 52/130/17 72/135/17 70/136/17
f 50/113/15 46/116/15 69/137/15 71/138/15
f 46/118/23 47/117/23 70/139/23 69/140/23
f 53/141/15 55/142/15 56/143/15 54/144/15
f 55/145/24 59/146/24 60/147/24 56/148/24
f 59/149/17 57/150/17 58/151/17 60/152/17
f 57/153/25 53/154/25 54/155/25 58/156/25
f 55/157/19 53/158/19 57/159/19 59/160/19
f 66/161/15 62/162/15 61/163/15 65/164/15
f 63/165/26 64/166/26 61/167/26 62/168/26
f 65/169/27 61/170/27 64/171/27 67/172/27
f 68/173/19 72/128/19 71/127/19 66/174/19
f 67/175/17 64/176/17 63/177/17 68/178/17
f 58/151/17 67/175/17 68/178/17 60/152/17
f 60/147/24 68/179/24 66/180/24 56/148/24
f 54/155/28 65/169/28 67/172/28 58/156/28
f 56/143/15 66/161/15 65/164/15 54/144/15
f 72/181/24 70/182/24 69/183/24 71/184/24
f 63/177/17 70/136/17 72/135/17 68/178/17
f 66/161/15 71/138/15 69/137/15 62/162/15
f 62/168/23 69/140/23 70/139/23 63/165/23
