# Blender v2.80 (sub 75) OBJ File: 'JSch_Level_1_Build.blend'
# www.blender.org
mtllib JSch_Level_1 Jump Room.mtl
g Jump_Room_Cube.018
v 2.687123 5.416185 -7.851423
v 2.687123 6.016185 -7.851423
v 2.027123 6.016185 -7.851423
v 2.027123 5.416185 -7.851423
v 6.788875 5.416185 -7.851423
v 6.788875 6.016185 -7.851423
v 6.128875 6.016185 -7.851423
v 6.128875 5.416185 -7.851423
v 2.687123 5.416185 -8.965821
v 2.687123 6.016185 -8.965821
v 2.027123 6.016185 -8.965821
v 2.027123 5.416185 -8.965821
v 3.347123 4.816185 -8.965824
v 3.347123 6.616184 -8.965824
v 1.367123 6.616184 -8.965824
v 1.367123 4.816185 -8.965824
v 2.687123 5.416185 -9.465822
v 2.687123 6.016185 -9.465822
v 2.027123 6.016185 -9.465822
v 2.027123 5.416185 -9.465822
v 3.347123 4.816185 -9.465824
v 3.347123 6.616184 -9.465824
v 1.367123 6.616184 -9.465824
v 1.367123 4.816185 -9.465824
v 6.788875 5.416185 -8.965821
v 6.788875 6.016185 -8.965821
v 6.128875 6.016185 -8.965821
v 6.128875 5.416185 -8.965821
v 7.448874 4.816185 -8.965824
v 7.448874 6.616184 -8.965824
v 5.468875 6.616184 -8.965824
v 5.468875 4.816185 -8.965824
v 6.788875 5.416185 -9.465822
v 6.788875 6.016185 -9.465822
v 6.128875 6.016185 -9.465822
v 6.128875 5.416185 -9.465822
v 7.448874 4.816185 -9.465824
v 7.448874 6.616184 -9.465824
v 5.468875 6.616184 -9.465824
v 5.468875 4.816185 -9.465824
v 2.687123 5.416185 -11.959328
v 2.027123 5.416185 -11.959328
v 6.788875 5.416185 -11.959328
v 6.128875 5.416185 -11.959328
v 2.687123 5.416185 -9.150826
v 6.128875 5.416185 -9.150826
v -0.164152 5.416185 -9.465822
v -0.164152 5.416185 -11.959328
v 2.027123 5.416185 -9.230077
v -0.164152 5.416185 -9.230077
v 7.446078 5.416185 -9.465822
v 7.446078 5.416185 -11.959328
v 2.687123 8.889630 -11.959328
v 2.027123 8.889630 -11.959328
v 6.788875 8.889630 -11.959328
v 6.128875 8.889630 -11.959328
v -0.164152 8.889630 -11.959328
v 7.446078 8.889630 -11.959328
v 6.788875 5.416185 -9.230027
v 7.446078 5.416185 -9.230027
v 7.446078 8.889653 -9.230027
v -0.164168 8.889654 -9.230025
v 3.046870 6.281169 -9.230025
v 3.032955 5.181707 -9.230025
v 1.669065 5.167789 -9.230025
v 1.836071 6.295086 -9.230025
v 7.110705 6.322919 -9.230025
v 7.041118 5.126037 -9.230025
v 5.858154 5.195623 -9.230025
v 5.746815 6.239417 -9.230025
v -0.164152 7.416185 -9.465822
v -0.164152 7.416185 -11.959328
v -0.164152 7.416185 -9.230077
v -1.794567 7.416185 -9.465822
v -1.794567 7.416185 -11.959328
v -1.794567 7.416185 -9.230077
v -1.794567 9.416185 -9.465822
v -1.794567 9.416185 -11.959328
v -1.794567 9.416185 -9.230077
v -3.243225 9.416185 -9.465822
v -3.243225 9.416185 -11.959328
v -3.243225 9.416185 -9.230077
v -3.243225 11.710143 -9.465822
v -3.243225 11.710143 -11.959328
v -3.243225 11.710143 -9.230077
v 2.687123 11.719549 -11.959328
v 2.027123 11.719549 -11.959328
v 6.788875 11.719549 -11.959328
v 6.128875 11.719549 -11.959328
v -0.164152 11.719549 -11.959328
v 7.446078 11.719549 -11.959328
v 7.446078 11.719573 -9.230027
v -0.164168 11.719573 -9.230025
v -3.243225 11.825082 -7.375108
v -0.164168 11.834512 -7.375056
v -2.887308 12.165880 -5.574363
v -0.398522 12.173503 -5.574322
v -3.243225 13.729520 -9.230077
v -0.164168 13.738950 -9.230025
v -3.243225 13.844458 -7.375108
v -0.164168 13.853888 -7.375056
v -2.887308 13.798131 -5.574363
v -0.398522 13.805754 -5.574322
v 7.446078 13.734196 -9.230027
v -3.243225 13.733648 -9.465822
v -3.243225 13.733648 -11.959328
v 2.687123 13.715556 -11.959328
v 2.027123 13.715556 -11.959328
v 6.788875 13.715556 -11.959328
v 6.128875 13.715556 -11.959328
v -0.164152 13.715556 -11.959328
v 7.446078 13.715556 -11.959328
v -3.055045 12.055357 -5.574366
v -0.230785 12.064008 -5.574319
v -3.055045 13.907627 -5.574366
v -0.230785 13.916276 -5.574319
v -3.455659 11.605739 -7.415935
v 0.123026 11.616700 -7.415875
v -3.455659 13.952792 -7.415935
v 0.123026 13.963752 -7.415875
v -3.487207 11.537497 -8.295130
v 0.091478 11.548457 -8.295070
v -3.487207 13.884550 -8.295130
v 0.091478 13.895510 -8.295070
vt 0.973746 0.455184
vt 0.973746 0.366425
vt 0.949208 0.366425
vt 0.949208 0.455184
vt 0.954121 0.180256
vt 0.954121 0.269016
vt 0.978658 0.269016
vt 0.978658 0.180256
vt 0.510814 0.927019
vt 0.540261 0.927019
vt 0.540261 0.902365
vt 0.510814 0.902365
vt 0.959034 0.332843
vt 0.929588 0.332843
vt 0.929588 0.357499
vt 0.959034 0.357499
vt 0.278187 0.953319
vt 0.248741 0.953319
vt 0.219294 0.985864
vt 0.307633 0.985864
vt 0.248741 0.920774
vt 0.278187 0.920774
vt 0.307633 0.888229
vt 0.219294 0.888229
vt 0.569355 0.794312
vt 0.569355 0.761767
vt 0.544822 0.761766
vt 0.544822 0.794311
vt 0.973741 0.097635
vt 0.973741 0.000000
vt 0.949208 0.000000
vt 0.949208 0.097635
vt 0.421017 0.794641
vt 0.421017 0.697006
vt 0.396482 0.697007
vt 0.396482 0.794642
vt 0.589333 0.934910
vt 0.589333 0.902365
vt 0.564798 0.902365
vt 0.564798 0.934910
vt 0.510814 1.000000
vt 0.481368 0.967455
vt 0.451922 0.967455
vt 0.422476 1.000000
vt 0.481368 0.934910
vt 0.510814 0.902365
vt 0.422476 0.902365
vt 0.451922 0.934910
vt 0.421020 0.981037
vt 0.421020 0.892278
vt 0.396482 0.892278
vt 0.396482 0.981037
vt 0.540261 0.902365
vt 0.540261 0.991124
vt 0.564798 0.991124
vt 0.564798 0.902365
vt 0.875760 0.912746
vt 0.905206 0.912746
vt 0.905206 0.888092
vt 0.875760 0.888092
vt 0.875760 0.943043
vt 0.846314 0.943043
vt 0.846314 0.967699
vt 0.875760 0.967699
vt 0.366526 0.953319
vt 0.337079 0.953319
vt 0.307633 0.985864
vt 0.395972 0.985864
vt 0.337079 0.920774
vt 0.366526 0.920774
vt 0.395972 0.888229
vt 0.307633 0.888229
vt 0.569355 0.592052
vt 0.569355 0.559506
vt 0.544822 0.559506
vt 0.544822 0.592051
vt 0.954121 0.277892
vt 0.954121 0.180257
vt 0.929588 0.180256
vt 0.929588 0.277891
vt 0.396482 0.794643
vt 0.396482 0.892278
vt 0.421017 0.892277
vt 0.421017 0.794642
vt 0.613868 0.934910
vt 0.613868 0.902365
vt 0.589333 0.902365
vt 0.589333 0.934910
vt 0.757975 0.888092
vt 0.787421 0.920637
vt 0.816868 0.920637
vt 0.846314 0.888092
vt 0.787421 0.953182
vt 0.757975 0.985727
vt 0.846314 0.985727
vt 0.816868 0.953182
vt 0.624035 0.592052
vt 0.624035 0.559507
vt 0.905206 0.967696
vt 0.875760 0.967696
vt 0.875760 0.888092
vt 0.846314 0.888092
vt 0.510814 0.981969
vt 0.540261 0.981969
vt 0.624035 0.761767
vt 0.624035 0.794312
vt 0.959034 0.277892
vt 0.929588 0.277892
vt 0.422476 0.592049
vt 0.422476 0.761764
vt 0.422476 0.559504
vt 0.422476 0.794309
vt 0.396482 0.697006
vt 0.411939 0.697006
vt 0.411939 0.527291
vt 0.396482 0.527291
vt 0.422476 0.902363
vt 0.544822 0.902365
vt 0.556390 0.902365
vt 0.556389 0.794311
vt 0.544822 0.527099
vt 0.422476 0.527097
vt 0.830672 0.234667
vt 0.830672 0.064952
vt 0.660206 0.064952
vt 0.660206 0.234667
vt 0.660206 0.267213
vt 0.830672 0.267213
vt 0.830672 0.032407
vt 0.660206 0.032407
vt 0.660206 0.375266
vt 0.830672 0.375266
vt 0.830672 0.000000
vt 0.660206 0.000000
vt 0.556392 0.559506
vt 0.556392 0.527099
vt 0.624035 0.937264
vt 0.746403 0.937264
vt 0.757975 0.937264
vt 0.757975 0.765985
vt 0.624035 0.765986
vt 0.001884 0.284861
vt 0.014019 0.375266
vt 0.184486 0.375374
vt 0.184720 0.000107
vt 0.056568 0.216955
vt 0.057214 0.276660
vt 0.058742 0.016565
vt 0.054602 0.083817
vt 0.003379 0.078295
vt 0.002609 0.217607
vt 0.014252 0.000000
vt 0.000000 0.019960
vt 0.000000 0.853808
vt 0.098154 0.853808
vt 0.098154 0.842183
vt 0.000000 0.842183
vt 0.000000 0.976764
vt 0.098154 0.976764
vt 0.989115 0.830725
vt 0.909099 0.830726
vt 0.909099 0.842348
vt 0.989115 0.842347
vt 0.989115 0.707796
vt 0.909099 0.707797
vt 0.098154 0.853808
vt 0.196308 0.853808
vt 0.196308 0.842183
vt 0.098154 0.842183
vt 0.098154 0.976764
vt 0.196308 0.976764
vt 0.909099 0.853971
vt 0.980195 0.853970
vt 0.980195 0.842348
vt 0.909099 0.842349
vt 0.909099 0.976900
vt 0.980195 0.976899
vt 0.000000 0.719227
vt 0.112581 0.719227
vt 0.112581 0.707602
vt 0.000000 0.707602
vt 0.000000 0.842183
vt 0.112581 0.842183
vt 0.521322 0.064952
vt 0.521322 0.234667
vt 0.521322 0.267213
vt 0.521322 0.375266
vt 0.521322 0.032407
vt 0.323371 0.375461
vt 0.323604 0.000194
vt 0.757975 0.626440
vt 0.624035 0.626441
vt 0.521322 0.000000
vt 0.112173 0.375327
vt 0.112123 0.455724
vt 0.210277 0.455786
vt 0.210233 0.527220
vt 0.322813 0.527291
vt 0.732518 0.455663
vt 0.732518 0.375266
vt 0.521783 0.527097
vt 0.634364 0.527097
vt 0.634364 0.455663
vt 0.909096 0.707796
vt 0.909086 0.616227
vt 0.757975 0.616227
vt 0.757985 0.707796
vt 0.891602 0.527097
vt 0.769459 0.527097
vt 0.841818 0.361447
vt 0.921771 0.366425
vt 0.929588 0.278056
vt 0.830672 0.271898
vt 0.211686 0.707602
vt 0.217327 0.616133
vt 0.118222 0.616133
vt 0.215053 0.527291
vt 0.134947 0.527291
vt 0.929588 0.186415
vt 0.830672 0.180256
vt 0.891619 0.888092
vt 0.909087 0.799348
vt 0.757975 0.799348
vt 0.769476 0.888092
vt 0.909099 0.707796
vt 0.757988 0.707796
vt 0.422476 0.375523
vt 0.422476 0.000256
vt 0.211889 0.842183
vt 0.211889 0.719227
vt 0.423363 0.267213
vt 0.423363 0.375266
vt 0.423363 0.032407
vt 0.423363 0.064952
vt 0.423363 0.000000
vt 0.423363 0.234668
vt 0.422476 0.527097
vt 0.757975 0.527097
vt 0.624035 0.528016
vt 0.994601 0.658356
vt 1.000000 0.666644
vt 1.000000 0.527377
vt 0.994601 0.535632
vt 0.914495 0.535385
vt 0.909096 0.527097
vt 0.909096 0.666364
vt 0.914495 0.658109
vt 0.832889 0.366425
vt 0.830672 0.457412
vt 0.945859 0.457412
vt 0.923793 0.366425
vt 0.240548 0.527291
vt 0.220850 0.618461
vt 0.396482 0.618461
vt 0.379155 0.527291
vt 0.379120 0.888229
vt 0.396480 0.797488
vt 0.220848 0.797489
vt 0.240513 0.888229
vt 0.855974 0.000000
vt 0.834021 0.090762
vt 0.949208 0.090762
vt 0.946878 0.000000
vt 0.834021 0.500778
vt 0.949208 0.500778
vt 0.219294 0.661865
vt 0.394926 0.661866
vt 0.394926 0.754073
vt 0.219294 0.754074
vt 0.830672 0.134120
vt 0.945859 0.134120
vt 0.219294 0.661531
vt 0.104108 0.661531
vt 0.382371 0.707819
vt 0.231260 0.707819
vt 0.839070 0.180256
vt 0.938175 0.180256
vt 0.231279 0.707819
vt 0.382391 0.707818
vn 1.0000 0.0000 0.0000
vn -1.0000 0.0000 0.0000
vn 0.0000 0.0000 -1.0000
vn 0.0000 1.0000 0.0000
vn 0.0000 -1.0000 0.0000
vn 0.0000 0.0000 1.0000
vn -0.0031 0.9981 -0.0618
vn -0.0030 0.9827 -0.1854
vn -0.9916 0.0000 -0.1291
vn 0.9810 0.0000 -0.1939
vn 0.0031 -0.9996 -0.0263
vn 0.0031 -0.9981 0.0618
vn -0.9771 0.0000 0.2126
vn 0.0030 -0.9716 0.2366
vn -0.0031 0.9997 0.0252
vn 0.9820 0.0000 0.1887
vn -0.9994 0.0000 0.0359
vn 0.0031 -0.9970 0.0773
vn -0.0031 0.9970 -0.0773
vn 0.9994 0.0000 -0.0359
vn 0.9676 0.0000 0.2525
vn -0.0030 0.9864 -0.1644
vn 0.9646 0.0000 -0.2637
vn 0.0030 -0.9835 -0.1808
usemtl Material.012
s off
f 14/1/1 13/2/1 21/3/1 22/4/1
f 16/5/2 15/6/2 23/7/2 24/8/2
f 9/9/2 10/10/2 18/11/2 17/12/2
f 11/13/1 12/14/1 20/15/1 19/16/1
f 19/17/3 20/18/3 24/19/3 23/20/3
f 17/21/3 18/22/3 22/23/3 21/24/3
f 20/18/3 17/21/3 21/24/3 24/19/3
f 18/22/3 19/17/3 23/20/3 22/23/3
f 12/25/4 9/26/4 17/27/4 20/28/4
f 15/29/4 14/30/4 22/31/4 23/32/4
f 13/33/5 16/34/5 24/35/5 21/36/5
f 10/37/5 11/38/5 19/39/5 18/40/5
f 14/41/6 10/42/6 9/43/6 13/44/6
f 11/45/6 10/42/6 14/41/6 15/46/6
f 15/46/6 16/47/6 12/48/6 11/45/6
f 9/43/6 12/48/6 16/47/6 13/44/6
f 30/49/1 29/50/1 37/51/1 38/52/1
f 32/53/2 31/54/2 39/55/2 40/56/2
f 25/57/2 26/58/2 34/59/2 33/60/2
f 27/61/1 28/62/1 36/63/1 35/64/1
f 35/65/3 36/66/3 40/67/3 39/68/3
f 33/69/3 34/70/3 38/71/3 37/72/3
f 36/66/3 33/69/3 37/72/3 40/67/3
f 34/70/3 35/65/3 39/68/3 38/71/3
f 28/73/4 25/74/4 33/75/4 36/76/4
f 31/77/4 30/78/4 38/79/4 39/80/4
f 29/81/5 32/82/5 40/83/5 37/84/5
f 26/85/5 27/86/5 35/87/5 34/88/5
f 30/89/6 26/90/6 25/91/6 29/92/6
f 27/93/6 26/90/6 30/89/6 31/94/6
f 31/94/6 32/95/6 28/96/6 27/93/6
f 25/91/6 28/96/6 32/95/6 29/92/6
f 8/97/4 5/98/4 25/74/4 28/73/4
f 6/99/2 26/58/2 25/57/2 5/100/2
f 27/61/1 7/101/1 8/102/1 28/62/1
f 1/103/2 2/104/2 10/10/2 9/9/2
f 1/105/4 9/26/4 12/25/4 4/106/4
f 11/13/1 3/107/1 4/108/1 12/14/1
f 17/27/4 36/76/4 44/109/4 41/110/4
f 33/75/4 43/111/4 44/109/4 36/76/4
f 17/27/4 41/110/4 42/112/4 20/28/4
f 36/113/5 46/114/5 45/115/5 17/116/5
f 42/112/4 48/117/4 47/118/4 20/28/4
f 47/118/4 50/119/4 49/120/4 20/28/4
f 33/75/4 51/121/4 52/122/4 43/111/4
f 41/123/6 44/124/6 56/125/6 53/126/6
f 41/123/6 53/126/6 54/127/6 42/128/6
f 43/129/6 55/130/6 56/125/6 44/124/6
f 42/128/6 54/127/6 57/131/6 48/132/6
f 52/133/6 58/134/6 55/130/6 43/129/6
f 33/75/4 59/135/4 60/136/4 51/121/4
f 52/137/2 51/138/2 60/139/2 61/140/2 58/141/2
f 65/142/3 50/143/3 62/144/3
f 62/144/3 61/145/3 63/146/3 66/147/3 65/142/3
f 63/146/3 61/145/3 67/148/3 70/149/3
f 63/146/3 70/149/3 69/150/3 64/151/3
f 60/152/3 68/153/3 67/148/3 61/145/3
f 47/154/1 71/155/1 73/156/1 50/157/1
f 48/158/1 72/159/1 71/155/1 47/154/1
f 71/160/4 74/161/4 76/162/4 73/163/4
f 72/164/4 75/165/4 74/161/4 71/160/4
f 74/166/1 77/167/1 79/168/1 76/169/1
f 75/170/1 78/171/1 77/167/1 74/166/1
f 77/172/4 80/173/4 82/174/4 79/175/4
f 78/176/4 81/177/4 80/173/4 77/172/4
f 80/178/1 83/179/1 85/180/1 82/181/1
f 81/182/1 84/183/1 83/179/1 80/178/1
f 56/125/6 89/184/6 86/185/6 53/126/6
f 53/126/6 86/185/6 87/186/6 54/127/6
f 54/127/6 87/186/6 90/187/6 57/131/6
f 55/130/6 88/188/6 89/184/6 56/125/6
f 62/144/3 93/189/3 92/190/3 61/145/3
f 61/140/2 92/191/2 91/192/2 58/141/2
f 58/134/6 91/193/6 88/188/6 55/130/6
f 73/194/3 76/195/3 79/196/3 82/197/3 85/198/3 62/144/3 93/189/3
f 93/189/3 62/144/3 85/198/3
f 75/199/6 72/200/6 57/131/6 84/201/6 81/202/6 78/203/6
f 90/187/6 84/201/6 57/131/6
f 85/204/7 94/205/7 95/206/7 93/207/7
f 94/205/8 96/208/8 97/209/8 95/206/8
f 97/210/9 103/211/9 101/212/9 95/213/9
f 85/180/1 98/214/1 100/215/1 94/216/1
f 94/216/10 100/215/10 102/217/10 96/218/10
f 95/213/2 101/212/2 99/219/2 93/220/2
f 102/221/11 100/222/11 101/223/11 103/224/11
f 100/222/12 98/225/12 99/226/12 101/223/12
f 93/189/3 99/227/3 104/228/3 92/190/3
f 84/183/1 106/229/1 105/230/1 83/179/1
f 83/179/1 105/230/1 98/214/1 85/180/1
f 87/186/6 108/231/6 111/232/6 90/187/6
f 88/188/6 109/233/6 110/234/6 89/184/6
f 91/193/6 112/235/6 109/233/6 88/188/6
f 89/184/6 110/234/6 107/236/6 86/185/6
f 86/185/6 107/236/6 108/231/6 87/186/6
f 90/187/6 111/232/6 106/237/6 84/201/6
f 91/192/2 92/191/2 104/238/2 112/239/2
f 103/240/6 116/241/6 115/242/6 102/243/6
f 96/244/6 113/245/6 114/246/6 97/247/6
f 102/243/6 115/242/6 113/245/6 96/244/6
f 97/247/6 114/246/6 116/241/6 103/240/6
f 115/248/13 119/249/13 117/250/13 113/251/13
f 113/252/14 117/253/14 118/254/14 114/255/14
f 116/256/15 120/257/15 119/258/15 115/259/15
f 114/260/16 118/261/16 120/262/16 116/263/16
f 119/249/17 123/264/17 121/265/17 117/250/17
f 117/253/18 121/266/18 122/267/18 118/254/18
f 120/257/19 124/268/19 123/269/19 119/258/19
f 118/261/20 122/270/20 124/271/20 120/262/20
f 123/272/21 121/273/21 85/180/21 98/214/21
f 99/274/22 98/275/22 123/269/22 124/268/22
f 93/276/23 99/277/23 124/271/23 122/270/23
f 122/267/24 121/266/24 85/278/24 93/279/24
